<svg width="1646" height="603" viewBox="0 0 1646 603" fill="none" xmlns="http://www.w3.org/2000/svg">
<path fill-rule="evenodd" clip-rule="evenodd" d="M293.348 108.094C286.405 109.796 276.81 114.139 269.15 119.044L265.953 121.091L260.063 119.345C252.104 116.986 247.088 116.255 241.537 116.646C228.234 117.582 214.383 126.412 210.336 136.534C209.799 137.876 209.072 139.279 208.718 139.653C208.365 140.027 205.22 140.695 201.731 141.137C192.73 142.278 186.412 143.943 180.436 146.748C171.514 150.935 166.889 156.926 164.144 165.305C162.248 171.093 161.832 176.091 162.611 183.703C163.466 192.047 163.633 196.318 166.364 201.842C169.419 208.024 173.313 212.025 178.84 214.659C182.79 216.542 183.706 216.752 188.873 216.952C192.128 217.078 195.705 216.894 197.238 216.522C200.327 215.771 200.563 215.95 201.136 219.48C201.748 223.252 206.074 240.456 206.687 241.563C208.376 244.607 216.443 245.767 229.539 244.85C247.403 243.6 265.772 239.589 286.078 232.506C310.754 223.897 327.847 213.85 332.547 205.191L334.154 202.231L329.337 183.842L324.52 165.453L328.371 161.516C338.692 150.963 340.246 137.305 332.691 123.54C325.925 111.211 308.512 104.375 293.348 108.094ZM642.835 108.04C642.031 108.897 641.881 110.46 641.881 118.041V127.027H639.699C638.499 127.027 636.36 127.589 634.946 128.277C632.904 129.27 632.22 129.983 631.618 131.75C630.071 136.283 632.11 141.413 635.932 142.6C637.145 142.977 638.461 143.533 638.857 143.837C639.738 144.511 639.854 173.329 639 179.665C638.026 186.903 635.699 189.79 626.397 195.303C614.526 202.339 609.721 208.487 608.537 218.154C608.219 220.751 607.647 246.142 607.266 274.578C606.512 330.905 606.417 328.736 609.771 332.421C612.51 335.429 615.178 336.426 623.001 337.367C634.565 338.758 666.505 339.058 682.207 337.924C700.237 336.621 703.56 335.793 706.706 331.814C709.412 328.393 709.766 326.099 709.508 313.683C709.379 307.441 709.005 283.707 708.678 260.939C708.012 214.608 707.824 217.356 712.143 210.343C715.986 204.103 717.454 199.757 717.783 193.632C718.515 180.049 712.671 171.532 699.242 166.61C697.659 166.03 693.842 165.643 687.489 165.42C679.068 165.124 677.995 164.975 677.263 164.01C676.162 162.556 676.079 145.49 677.166 144.1C677.563 143.594 678.923 142.858 680.191 142.465C683.306 141.5 685.277 137.999 684.918 134.07C684.493 129.43 681.514 127.181 675.641 127.069L673.396 127.027L673.789 118.275C674.342 105.957 675.832 107.023 658.068 107.023C644.966 107.023 643.71 107.107 642.835 108.04ZM312.239 113.074C317.692 114.92 321.242 117.079 324.457 120.506C331.327 127.829 334.399 138.797 331.896 147.068C330.627 151.261 328.73 154.223 323.987 159.415C320.781 162.924 319.909 164.25 319.924 165.597C319.934 166.54 321.963 174.688 324.433 183.703C326.902 192.719 329.054 200.679 329.215 201.394C329.452 202.451 328.66 203.492 324.965 206.973C319.693 211.941 315.502 214.696 306.31 219.231C289.205 227.67 267.113 234.724 246.397 238.36C227.54 241.669 211.493 241.62 210.437 238.249C209.914 236.583 207.164 225.232 205.775 219.01L204.416 212.922L206.63 211.093C207.848 210.088 209.582 208.14 210.482 206.764L212.12 204.265L216.441 204.259C228.94 204.244 239.579 199.84 248.946 190.806L252.947 186.947L261.626 186.809C269.156 186.69 270.991 186.472 275.489 185.162C286.661 181.911 294.58 176.859 297.345 171.222C299.007 167.834 299.212 165.816 297.993 164.84C296.663 163.776 294.956 165.061 293.57 168.17C290.624 174.774 280.943 180.213 268.357 182.334C262.995 183.238 257.469 183.384 256.275 182.654C255.677 182.288 255.643 181.912 256.131 181.032C257.088 179.308 256.92 176.656 255.829 176.252C254.617 175.803 253.493 176.733 252.125 179.32C248.113 186.906 237.232 195.332 227.962 198.031C223.82 199.237 215.901 200.08 215.001 199.411C214.684 199.176 214.425 197.638 214.425 195.993C214.425 193.75 214.172 192.847 213.416 192.384C211.771 191.375 210.446 192.633 210 195.626C209.025 202.162 203.291 209.211 197.124 211.454C194.303 212.48 192.848 212.664 189.015 212.477C182.989 212.183 179.032 210.396 175.012 206.154C169.991 200.854 167.481 194.41 166.213 183.56C164.812 171.579 167.481 162.418 174.224 156.06C180.155 150.468 192.425 146.089 205.09 145.045C211.497 144.517 212.035 144.258 213.246 141.106C216.755 131.972 226.447 124.212 237.468 121.712C243.473 120.349 249.217 120.893 258.035 123.661C266.19 126.22 267.024 126.314 268.931 124.889C271.223 123.175 282.665 116.973 287.259 114.953C289.633 113.91 293.011 112.703 294.766 112.271C299.141 111.195 307.874 111.596 312.239 113.074ZM669.241 112.112C669.43 112.295 669.378 115.662 669.127 119.596L668.669 126.749L657.58 126.9L646.49 127.051V119.194V111.337L657.694 111.559C663.856 111.681 669.052 111.93 669.241 112.112ZM677.598 132.522C678.691 132.812 679.082 133.333 679.218 134.68C679.404 136.515 678.439 137.749 675.078 139.971C671.957 142.033 671.577 143.626 671.735 153.976C671.892 164.249 672.267 166.183 674.491 168.202C675.902 169.482 676.366 169.545 686.44 169.812L696.921 170.09L700.942 171.998C706.17 174.481 710.456 178.591 712.007 182.609C715.252 191.017 713.982 198.847 707.868 208.129L706.236 210.607L704.883 207.65L703.53 204.692L704.952 203.062C706.699 201.059 708.131 196.594 708.131 193.149C708.131 186.525 704.538 181.173 698.227 178.395C694.839 176.904 694.004 176.781 685.894 176.58C676.221 176.341 674.044 176.861 672.935 179.676C671.803 182.547 673.545 187.761 677.088 192.105C678.755 194.149 682.109 196.395 690.773 201.271C696.469 204.477 700.703 208.673 702.04 212.438C703.702 217.117 704.042 225.203 704.697 275.664C705.181 312.833 705.176 325.531 704.679 326.782C703.27 330.334 700.821 331.81 695.059 332.583C675.565 335.197 624.405 334.835 616.727 332.029C614.686 331.284 612.646 329.478 611.552 327.449C610.821 326.095 610.795 320.702 611.352 286.053C612.331 225.092 612.647 216.873 614.167 213.071C616.019 208.434 619.361 205.189 627.627 200.002C636.227 194.606 639.698 191.464 641.684 187.28C643.81 182.801 644.161 179.035 644.174 160.587C644.186 144.079 644.168 143.836 642.87 141.973C642.146 140.934 640.534 139.572 639.288 138.945C637.085 137.837 636.306 136.568 636.178 133.874C636.144 133.158 636.531 132.561 637.129 132.41C638.759 132 676.021 132.102 677.598 132.522ZM652.942 146.03C652.183 146.762 652.035 163.943 652.766 166.475C653.215 168.03 655.022 168.649 655.774 167.505C656.044 167.093 656.27 162.242 656.275 156.726C656.283 146.792 656.031 145.363 654.267 145.363C653.919 145.363 653.322 145.663 652.942 146.03ZM523.596 150.737C518.472 153.303 518.364 153.584 518.004 165.402C517.833 171.037 517.452 176.572 517.158 177.704C516.74 179.314 515.343 180.885 510.735 184.927C497.124 196.866 493.4 201.219 490.592 208.467C489.562 211.126 489.312 212.946 489.302 217.876C489.291 223.446 489.436 224.294 490.942 227.44C493.595 232.977 499.422 237.785 505.953 239.824C507.198 240.212 509.752 241.489 511.63 242.66C520.479 248.175 530.919 249.312 538.916 245.629C541.448 244.463 543.524 243.991 547.242 243.735C553.254 243.321 558.188 241.216 562.917 237.047C569.923 230.871 573.073 219.651 570.487 210.074C568.681 203.384 564.968 199.036 554.454 191.301C546.431 185.398 542.251 181.609 541.362 179.433C540.518 177.367 540.556 170.465 541.459 161.864C542.114 155.623 542.093 154.75 541.261 153.526C539.795 151.368 535.489 149.663 530.828 149.398C527.194 149.191 526.383 149.341 523.596 150.737ZM533.214 153.925C534.242 154.09 535.764 154.655 536.596 155.181C537.984 156.058 538.019 156.17 537.03 156.545C534.056 157.673 524.143 156.723 524.143 155.31C524.143 155.035 524.207 154.805 524.287 154.801C524.366 154.797 525.468 154.438 526.735 154.005C528.002 153.572 529.558 153.309 530.191 153.421C530.825 153.533 532.185 153.76 533.214 153.925ZM531.408 161.211L537.151 161.604L536.725 165.291C535.99 171.656 536.173 177.759 537.185 180.623C538.41 184.09 542.816 188.382 552.924 195.954C564.895 204.919 567.109 208.489 566.64 218.069C566.315 224.713 564.825 228.7 561.231 232.557C558.367 235.63 553.062 238.459 549.058 239.049C546.235 239.466 546.079 239.124 547.691 236.051C550.153 231.356 550.714 223.909 549.154 216.623C548.179 212.071 547.251 209.913 545.755 208.715C544.97 208.087 544.683 208.105 543.934 208.828C543.131 209.602 543.171 210.171 544.327 214.614C546.065 221.288 546.079 228.368 544.364 232.681C541.414 240.096 537.82 242.654 529.8 243.046C525.776 243.242 523.984 243.051 520.618 242.064C516.925 240.983 515.986 240.405 512.603 237.137C508.505 233.177 506.69 229.707 505.967 224.45C505.097 218.128 508.295 210.142 514.592 202.905C518.306 198.636 519.127 196.621 517.379 196.065C516.265 195.712 509.944 201.866 506.875 206.293C500.893 214.919 499.888 223.675 503.763 233.413C504.367 234.933 503.019 234.325 500.027 231.731C498.193 230.141 496.425 227.868 495.287 225.637C493.566 222.266 493.484 221.811 493.706 216.922C493.905 212.538 494.223 211.181 495.823 207.886C498.444 202.487 501.443 198.951 508.195 193.298C522.059 181.691 521.535 182.574 522.122 169.812C522.354 164.769 522.654 160.466 522.788 160.248C522.922 160.031 523.624 160.07 524.348 160.335C525.072 160.601 528.249 160.995 531.408 161.211ZM693.067 181.515C699.717 182.89 703.484 187.045 703.51 193.033C703.53 197.912 700.713 201.83 698.597 199.865C698.296 199.585 695.17 197.961 691.65 196.254C682.445 191.79 677.598 187.192 677.598 182.924C677.598 181.705 677.883 181.519 680.047 181.332C685.266 180.878 690.335 180.949 693.067 181.515ZM404.316 194.826C395.245 196.57 388.414 201.849 384.917 209.819L383.577 212.875L383.417 258.381C383.24 308.423 383.203 307.816 386.704 311.64C389.168 314.331 393.968 316.886 399.141 318.262C403.138 319.324 405.247 319.489 415.261 319.522C425.592 319.556 427.248 319.43 431.282 318.303C433.756 317.611 437.007 316.446 438.506 315.713C441.895 314.056 445.757 310.086 446.731 307.255C447.738 304.332 448.189 220.761 447.227 215.405C446.341 210.47 444.244 206.479 440.468 202.545C434.287 196.105 428.467 194.224 415.025 194.322C410.403 194.355 405.583 194.582 404.316 194.826ZM423.321 198.986C429.395 199.543 435.928 203.24 439.414 208.092C440.862 210.107 443.201 216.591 443.201 218.588C443.201 219.692 436.613 222.409 431.392 223.458C419.124 225.924 393.291 223.8 388.897 219.965C386.758 218.098 389.107 210.103 393.075 205.744C396.793 201.66 402.232 199.428 410.077 198.769C415.191 198.34 416.518 198.361 423.321 198.986ZM400.584 205.361C399.257 206.642 399.111 207.633 400.11 208.596C401.049 209.502 402.04 209.434 403.123 208.39C404.366 207.19 404.258 205.531 402.889 204.825C401.984 204.358 401.51 204.468 400.584 205.361ZM121.335 205.948C115.957 209.367 115.435 215.533 119.817 223.874C120.601 225.366 129.409 237.6 139.39 251.062C149.372 264.523 157.328 275.725 157.07 275.956C156.812 276.188 152.877 277.172 148.325 278.145C131.552 281.728 121.178 286.21 117.106 291.631C115.608 293.626 115.41 294.349 115.41 297.837C115.41 303.183 116.913 315.21 118.262 320.662C120.782 330.855 125.903 342.126 132.018 350.943C136.255 357.053 145.816 366.548 151.525 370.315C164.026 378.563 169.141 381.424 174.381 383.1C191.469 388.566 220.161 389.094 237.08 384.255C241.242 383.065 246.914 380.394 248.773 378.75C249.407 378.19 252.651 375.996 255.983 373.874C263.671 368.979 269.198 364.379 273.61 359.203C287.166 343.297 293.66 326.2 294.933 303.051C295.256 297.17 295.161 295.583 294.366 293.574C290.575 283.999 269.662 277.273 234.371 274.278C224.524 273.443 195.808 272.991 188.119 273.55C181.987 273.997 181.556 273.959 180.564 272.899C179.985 272.28 174.245 263.898 167.807 254.271C139.078 211.307 137.099 208.676 131.624 206.139C128.328 204.612 123.576 204.523 121.335 205.948ZM427.186 205.485C425.183 207.417 428.058 211.009 430.222 209.277C431.455 208.29 431.322 206.082 429.989 205.393C428.552 204.651 428.032 204.668 427.186 205.485ZM412.89 206.175C412.026 208.347 414.134 210.601 415.981 209.479C418.157 208.157 417.218 205.374 414.596 205.374C413.833 205.374 413.065 205.734 412.89 206.175ZM130.268 210.326C131.443 210.91 133.225 212.223 134.226 213.243C135.228 214.263 141.467 223.224 148.091 233.156C178.67 279.007 185.557 288.981 189.049 292.474C191.463 294.887 193.595 296.156 201.36 299.799C206.526 302.222 212.203 305.32 213.976 306.684C216.828 308.877 221.986 315.241 221.986 316.567C221.986 317.149 185.909 317.18 182.524 316.602L180.22 316.208L179.24 308.716C177.449 295.01 177.369 294.762 172.588 288C170.226 284.66 165.384 278.143 161.827 273.517C158.269 268.891 150.309 258.23 144.137 249.826C137.965 241.422 130.812 231.737 128.241 228.305C121.534 219.352 119.731 213.957 122.366 210.727C123.847 208.911 127.091 208.746 130.268 210.326ZM400.283 227.92C407.476 229.138 423.169 229.299 429.323 228.219C431.67 227.806 435.754 226.765 438.396 225.903L443.201 224.336V229.883C443.201 236.403 442.679 237.226 437.317 239.162C426.338 243.123 407.197 243.186 394.21 239.302C387.907 237.417 387.897 237.405 387.897 230.411V224.395L391.21 225.67C393.032 226.371 397.115 227.384 400.283 227.92ZM622.634 227.878C618.821 229.068 618.941 227.707 618.533 274.274L618.165 316.226L619.381 318.07C620.099 319.158 621.712 320.41 623.318 321.126C626.013 322.327 626.35 322.338 658.588 322.338C690.101 322.338 691.199 322.303 693.092 321.227C694.168 320.616 695.594 319.408 696.261 318.543C697.47 316.974 697.473 316.863 697.375 275.336C697.282 236.237 697.212 233.577 696.223 231.639C694.105 227.491 695.678 227.662 658.049 227.482C636.726 227.381 623.763 227.525 622.634 227.878ZM691.505 232.551L692.865 233.612L693.346 273.44C693.611 295.346 693.672 313.868 693.481 314.601C693.29 315.334 692.437 316.375 691.585 316.913C690.152 317.819 687.655 317.893 658.613 317.893C641.331 317.893 626.482 317.701 625.615 317.467C622.153 316.533 622.271 318.455 622.901 273.487C623.217 250.916 623.614 232.233 623.783 231.969C623.953 231.705 638.953 231.489 657.118 231.489C688.771 231.489 690.201 231.533 691.505 232.551ZM778.537 241.074C774.369 243.875 768.137 254.214 765.37 262.918C763.969 267.324 763.787 268.793 763.757 275.941L763.723 283.998L760.466 288.351L757.209 292.704L756.957 282.517C756.682 271.39 755.961 267.918 753.288 264.854C750.204 261.321 746.601 263.429 744.506 269.994C742.287 276.946 741.859 280.05 741.845 289.277C741.832 297.881 741.933 298.743 743.478 303.291L745.124 308.135L743.387 310.236C740.784 313.382 730.688 322.621 727.418 324.849C725.071 326.447 724.549 327.105 724.549 328.46C724.549 329.829 724.808 330.146 726.038 330.284C727.737 330.475 731.396 327.998 739.338 321.278L744.334 317.052L749.708 318.856C754.958 320.618 755.3 320.659 764.587 320.619C772.441 320.585 774.879 320.37 778.623 319.381C792.091 315.823 792.125 310.269 778.701 306.757C774.501 305.658 760.128 305.056 756.666 305.834C755.319 306.137 754.218 306.223 754.22 306.027C754.222 305.83 755.402 304.267 756.844 302.555L759.464 299.442L767.354 299.108C779.716 298.586 790.221 295.581 797.921 290.366C803.909 286.31 805.203 283.125 801.841 280.72C800.387 279.68 799.477 279.56 793.488 279.619C785.901 279.694 780.633 280.811 773.146 283.933L768.637 285.814L769.73 284.35C771.998 281.315 774.346 279.508 777.338 278.496C787.022 275.225 797.244 268.497 802.461 261.962C807.94 255.098 807.034 251.313 799.925 251.375C796.398 251.405 792.158 253.089 786.916 256.54C785.031 257.781 783.366 258.678 783.217 258.534C783.068 258.391 783.214 257.31 783.542 256.133C785.586 248.802 785.363 242.653 782.986 240.796C781.368 239.532 780.776 239.569 778.537 241.074ZM398.79 245.092C406.652 246.687 416.065 247.245 423.152 246.535C430.186 245.831 437.526 244.274 440.274 242.903C441.219 242.432 442.264 242.047 442.596 242.047C443.012 242.047 443.201 251.9 443.201 273.469C443.201 299.436 443.06 305.151 442.388 306.391C439.284 312.123 428.58 315.948 415.649 315.948C404.558 315.948 395.218 313.658 391.159 309.943C387.776 306.849 387.897 308.203 387.897 273.533V241.62L391.277 242.937C393.135 243.661 396.516 244.63 398.79 245.092ZM675.78 246.711C672.39 247.879 668.443 250.319 665.936 252.798C663.768 254.941 660.318 260.878 660.317 262.467C660.316 263.466 659.482 263.334 656.408 261.848C652.391 259.906 649.811 259.583 648.223 260.823C646.122 262.464 647.096 263.763 652.027 265.899C656.074 267.651 656.336 267.863 655.344 268.582C654.498 269.194 653.003 269.281 648.37 268.987C643.03 268.647 642.228 268.726 639.886 269.82C633.978 272.578 630.073 280.683 631.19 287.868C631.874 292.265 636.247 295.945 640.788 295.945C649.298 295.945 656.012 287.592 655.628 277.481C655.5 274.096 656.391 272.446 658.736 271.729C660.699 271.128 660.844 272.582 659.134 275.719C657.043 279.553 656.543 282.902 657.419 287.201C659.293 296.386 665.235 302.259 672.702 302.307C676.758 302.333 679.155 301.203 681.841 297.997C683.351 296.195 683.646 295.322 683.836 292.091C684.439 281.783 676.961 271.006 669.169 270.953C667.702 270.943 667.311 270.678 667.087 269.544C666.842 268.312 667.213 267.939 670.212 266.398C678.757 262.005 685.425 250.706 681.631 247.048C680.307 245.771 678.766 245.682 675.78 246.711ZM780.707 248.02C780.678 254.096 777.546 262.475 771.909 271.562L768.331 277.331L768.158 273.811C767.942 269.4 769.642 262.677 772.386 257.099C774.551 252.698 779.266 245.936 780.17 245.936C780.471 245.936 780.713 246.874 780.707 248.02ZM677.232 253.755C672.803 261.604 663.177 266.983 666.507 259.747C667.807 256.921 671.54 253.489 674.927 252.005C678.692 250.356 679.013 250.6 677.232 253.755ZM800.88 255.977C800.88 257.085 797.468 261.362 794.702 263.721C788.514 269.001 776.685 275.401 776.685 273.471C776.685 273.334 777.611 271.697 778.745 269.832C782.393 263.828 794.172 255.912 800.16 255.439C800.556 255.408 800.88 255.65 800.88 255.977ZM309.652 260.954C305.356 263.052 302.539 266.341 301.123 270.913C299.864 274.975 300.32 285.035 302.04 291.16C304.656 300.473 309.502 310.028 315.65 317.988C318.803 322.072 320.523 323.192 321.922 322.072C322.358 321.723 323.707 319.549 324.918 317.242C326.129 314.935 327.972 312.325 329.013 311.442C330.775 309.946 331.234 309.836 335.696 309.836C345.189 309.836 346.722 308.539 349.321 298.305C349.67 296.932 350.459 295.601 351.207 295.13C351.914 294.683 355.208 293.924 358.529 293.443C365.71 292.404 366.447 291.926 365.226 289.107C362.733 283.352 354.994 275.266 347.166 270.237C342.266 267.089 333.098 262.557 328.272 260.897C325.981 260.108 322.876 259.618 319.056 259.442C313.462 259.183 313.189 259.227 309.652 260.954ZM322.8 264.028C332.4 266.207 346.919 274.69 354.706 282.669C357.436 285.465 359.669 287.911 359.669 288.104C359.669 288.297 357.318 288.872 354.445 289.383C347.698 290.581 346.68 291.252 345.54 295.254C343.214 303.413 342.723 304.514 341.235 304.903C340.443 305.11 337.646 305.305 335.019 305.335C327.786 305.419 325.126 307.12 321.525 313.962L320.084 316.699L317.894 313.407C306.649 296.502 301.725 277.563 306.522 269.668C308.024 267.195 311.452 264.761 314.57 263.952C318.149 263.023 318.384 263.025 322.8 264.028ZM752.066 272.369C753.292 277.007 753.513 290.368 752.435 294.594C751.372 298.758 749.159 303.301 748.322 303.037C747.921 302.911 747.289 301.701 746.918 300.349C746.069 297.248 745.968 284.053 746.758 279.275C747.555 274.447 749.695 268.099 750.445 268.332C750.777 268.435 751.507 270.252 752.066 272.369ZM510.645 269.306C509.876 269.614 508.034 270.707 506.55 271.735C504.684 273.029 503.606 273.45 503.052 273.105C501.323 272.031 498.168 271.55 495.992 272.029C492.731 272.747 490.866 274.786 485.557 283.443C479.767 292.885 477.78 296.621 474.346 304.526L471.704 310.608L468.465 311.818C461.763 314.322 455.518 319.682 443.153 333.541C430.849 347.334 420.376 360.174 411.048 372.903C401.101 386.478 398.693 390.802 398.372 395.673C398.156 398.942 398.243 399.255 399.599 400.112C401.326 401.204 405.137 400.721 410.375 398.747C419.469 395.321 444.651 381.747 459.404 372.319C476.812 361.194 486.539 352.329 491.06 343.465C494.962 335.814 495.374 328.868 492.355 321.589L490.869 318.007L492.152 315.45C496.261 307.257 504.958 294.452 512.923 284.87C520.481 275.777 520.179 276.334 518.962 273.731C517.107 269.763 513.842 268.026 510.645 269.306ZM649.357 274.178C650.609 275.077 650.834 275.72 650.978 278.809C651.121 281.844 650.899 282.849 649.538 285.359C646.266 291.391 640.87 293.557 637.417 290.223C635.975 288.831 635.835 288.331 635.855 284.679C635.879 280.351 637.064 277.343 639.665 275.002C642.531 272.425 646.451 272.091 649.357 274.178ZM514.022 274.763C514.499 275.623 514.08 276.38 511.638 279.069C505.547 285.776 495.287 300.284 490.176 309.419C488.68 312.094 487.252 314.281 487.004 314.281C486.755 314.281 485.376 313.647 483.937 312.872C482.499 312.096 480.278 311.283 479.004 311.066L476.685 310.67L478.869 305.569C480.071 302.764 482.298 298.388 483.82 295.845C485.342 293.302 487.82 289.024 489.327 286.338C492.498 280.688 495.499 276.66 496.872 276.21C497.4 276.038 498.522 276.064 499.368 276.269C500.615 276.57 500.831 276.863 500.515 277.819C499.582 280.641 499.581 281.856 500.511 282.601C501.354 283.276 502.015 282.812 506.296 278.541C511.235 273.614 512.926 272.787 514.022 274.763ZM671.722 275.611C675.792 277.653 678.825 283.455 679.215 289.945L679.473 294.248L677.441 296.208C675.648 297.937 675.065 298.167 672.473 298.167C669.912 298.167 669.243 297.912 667.248 296.173C661.578 291.232 659.744 281.24 663.701 276.848C665.549 274.798 669.032 274.261 671.722 275.611ZM228.665 278.193C253.736 279.793 269.105 282.845 281.682 288.725C290.247 292.729 292.199 295.616 289.228 299.891C284.307 306.972 265.826 312.737 238.692 315.657C226.587 316.959 227.043 317.03 225.397 313.587C223.603 309.834 215.941 302.31 211.328 299.771C209.427 298.724 205.059 296.639 201.622 295.136C194.431 291.994 192.146 290.104 187.265 283.259C185.449 280.714 183.964 278.542 183.964 278.433C183.964 277.571 216.213 277.398 228.665 278.193ZM161.757 281.359C163.109 282.952 171.881 294.931 172.399 295.891C173.045 297.087 174.665 306.505 175.122 311.724L175.492 315.948H173.145C163.353 315.948 139.415 310.549 128.931 305.975C123.326 303.531 119.443 299.629 119.443 296.442C119.443 294.622 123.208 291.515 128.379 289.069C134.415 286.213 137.761 285.126 147.383 282.893C159.571 280.064 160.568 279.957 161.757 281.359ZM798 283.889C798 285.259 794.249 288.114 789.917 290.044C783.226 293.024 777.376 294.338 769.484 294.633L762.571 294.891L764.423 293.309C768.425 289.893 779.873 285.265 787.918 283.81C792.468 282.987 798 283.031 798 283.889ZM289.959 310.74C288.008 325.993 283.421 338.145 275.065 350.194C264.941 364.793 248.507 375.653 230.339 379.75C212.124 383.857 186.901 382.135 170.213 375.645C157.362 370.647 145.033 361.207 136.813 350.074C129.938 340.762 124.184 327.448 121.823 315.393C119.845 305.292 119.815 305.495 122.948 307.646C127.801 310.98 139.879 315.095 151.427 317.35C174.902 321.935 214.62 322.866 243.301 319.505C263.874 317.093 279.769 312.626 288.235 306.877C289.344 306.124 290.327 305.575 290.42 305.659C290.514 305.742 290.306 308.028 289.959 310.74ZM778.368 311.055C780.721 311.771 782.736 312.622 782.848 312.946C783.282 314.204 776.332 316.033 768.331 316.766C761.061 317.431 749.033 315.19 749.033 313.17C749.033 312.409 753.383 310.507 756.677 309.827C758.017 309.551 762.484 309.42 766.603 309.538C772.404 309.703 775.056 310.046 778.368 311.055ZM480.007 316.204C489.606 319.471 492.521 330.449 486.858 342.006C485.733 344.3 483.64 347.045 480.953 349.749L476.789 353.938L474.557 349.807C470.481 342.261 461.501 335.376 457.837 336.986C455.759 337.899 456.15 339.11 459.167 341.103C463.796 344.161 467.33 347.644 470.009 351.79C471.424 353.979 472.581 356.03 472.581 356.348C472.581 357.327 464.591 363.891 460.648 366.153C460.188 366.417 459.429 365.564 458.429 363.662C456.603 360.185 451.755 355.104 448.966 353.743C445.993 352.292 443.305 351.846 442.313 352.64C440.857 353.806 441.375 354.627 444.881 356.715C450.793 360.235 456.963 367.94 455.205 369.608C454.263 370.501 442.109 377.626 441.527 377.626C441.298 377.626 440.683 376.762 440.161 375.705C437.868 371.067 431.015 366.08 429.073 367.636C428.606 368.01 428.223 368.536 428.223 368.806C428.223 369.075 430.297 371.449 432.832 374.082C435.367 376.714 437.44 379.174 437.44 379.547C437.44 380.288 428.97 384.905 418.319 389.97C406.356 395.659 402.874 396.603 402.877 394.156C402.883 389.263 436.376 346.6 455.153 327.568C465.977 316.597 472.456 313.635 480.007 316.204ZM367.176 326.661C365.271 327.59 363.306 330.503 362.858 333.059C362.237 336.6 361.984 336.706 358.186 335.018C356.056 334.072 353.455 333.418 351.267 333.279C347.88 333.064 347.713 333.116 346.37 334.841C345.605 335.823 344.13 337.507 343.091 338.582C341.431 340.303 340.959 340.499 339.162 340.218C338.039 340.042 335.256 339.01 332.979 337.925C328.364 335.726 325.456 335.391 324.587 336.958C324.28 337.51 323.46 340.824 322.764 344.32C319.272 361.87 325.333 376.909 338.283 382.828C341.891 384.476 342.46 384.57 348.724 384.541C354.621 384.514 355.792 384.338 359.381 382.938C374.613 376.998 386.893 359.205 386.082 344.249C385.679 336.822 380.87 328.907 375.428 326.714C373.074 325.766 369.063 325.739 367.176 326.661ZM375.224 331.645C377.391 333.073 380.147 337.501 380.703 340.45C381.257 343.393 379.922 344.478 376.128 344.171C373.511 343.959 371.077 342.817 366.047 339.438C365.911 339.346 366.2 338.461 366.69 337.47C367.18 336.48 367.775 334.795 368.012 333.727C368.249 332.658 368.705 331.472 369.024 331.09C369.941 329.992 373.148 330.279 375.224 331.645ZM357.093 339.489C359.302 340.518 362.781 342.554 364.824 344.014C370.197 347.854 373.038 348.94 377.641 348.914L381.498 348.892L381.161 350.618C380.601 353.474 378.371 358.822 376.396 362.043C368.915 374.245 357.752 381.17 347.111 380.212C333.772 379.01 325.515 367.349 326.432 351.008C326.747 345.392 327.701 340.953 328.593 340.953C328.821 340.953 330.743 341.736 332.863 342.693C340.074 345.947 343.832 345.37 348.204 340.333C349.703 338.606 351.017 337.619 351.818 337.619C352.51 337.619 354.884 338.461 357.093 339.489ZM779.633 344.562C772.913 345.867 763.733 349.784 752.797 356.014C738.884 363.941 733.283 364.705 718.568 360.687C699.01 355.346 698.899 355.322 691.649 355.004C682.725 354.612 681.138 354.92 661.824 360.773C653.27 363.367 640.439 367.256 633.312 369.417C626.186 371.578 615.687 374.955 609.981 376.923C604.276 378.89 594.034 382.322 587.222 384.548C563.225 392.392 545.996 398.345 542.757 399.913C537.651 402.384 535.385 406.154 535.378 412.188C535.372 417.104 536.483 420.516 538.783 422.64C539.944 423.714 558.004 435.625 578.915 449.111C621.495 476.572 620.084 475.834 631.005 476.367C641.073 476.86 638.384 477.765 718.857 446.81C768.507 427.711 791.655 418.602 794.663 416.978C797.782 415.294 798.663 413.354 799.336 406.691C800.11 399.036 799.716 398.185 793.646 394.393C786.887 390.171 784.523 388.471 784.592 387.881C784.626 387.589 789.162 385.837 794.673 383.988C800.407 382.064 806.072 379.773 807.917 378.631C812.57 375.753 813.21 373.965 813.168 363.954C813.132 355.261 812.564 352.364 810.412 349.897C808.512 347.719 803.929 345.595 798.922 344.572C794.047 343.576 784.738 343.571 779.633 344.562ZM534.935 346.537C524.566 348.318 512.847 354.472 501.962 363.852C495.619 369.317 489.863 375.571 480.08 387.627C471.954 397.642 467.431 402.307 464.401 403.798C460.798 405.571 455.478 406.427 445.794 406.791C422.831 407.655 409.853 409.247 394.169 413.126C372.426 418.502 360.052 425.375 355.039 434.858C352.425 439.804 352.005 446.156 353.895 452.183C358.648 467.341 369.697 480.207 383.865 487.086C397.209 493.564 412.449 496.374 437.152 496.91C471.316 497.652 490.138 493.87 507.379 482.799C518.835 475.443 526.287 466.04 530.839 453.194C532.51 448.484 532.715 447.228 532.746 441.526C532.789 433.859 531.929 431.567 527.198 426.735C522.301 421.734 516.728 418.508 508.587 415.963C503.477 414.366 501.497 413.421 499.513 411.631C497.494 409.808 497.434 407.106 499.298 402.012C502.966 391.99 513.082 382.581 532.905 370.753C542.801 364.848 547.363 361.326 549.147 358.211C551.699 353.754 550.763 349.271 546.874 347.332C544.687 346.241 538.901 345.856 534.935 346.537ZM800.267 349.047C806.544 351.074 809.86 355.86 808.46 360.874C807.149 365.571 801.815 368.429 786.258 372.77C773.144 376.429 771.371 377.108 770.122 378.946C767.431 382.907 771.867 386.966 789.893 397.033C793.627 399.119 794.083 399.552 793.925 400.862C793.7 402.731 792.707 403.132 743.628 421.182C723.35 428.64 697.945 438.057 687.172 442.11C676.399 446.163 662.66 451.331 656.64 453.594C640.292 459.742 637.293 460.587 631.878 460.571C623.74 460.548 619.984 458.909 601.166 447.17C571.92 428.924 545.807 412.256 544.205 410.811C543.2 409.906 542.207 408.51 541.999 407.711C541.173 404.535 544.15 403.282 581.749 390.971C590.938 387.963 602.421 384.111 607.269 382.412C620.469 377.785 648.768 369.051 674.21 361.752C686.91 358.109 693.893 358.39 711.367 363.245C727.998 367.866 732.556 368.391 740.018 366.55C744.972 365.329 748.385 363.754 759.709 357.467C769.12 352.242 775.637 349.586 781.801 348.463C787.437 347.437 796.134 347.712 800.267 349.047ZM541.721 353.163C540.308 355.078 534.566 357.067 530.451 357.067C522.581 357.067 532.565 351.718 540.742 351.554L542.942 351.51L541.721 353.163ZM783.015 353.491C779.464 354.546 776.177 357.977 776.177 360.63C776.177 363.769 780.632 366.501 785.766 366.509C789.366 366.516 794.967 364.401 796.862 362.32C802.554 356.066 793.589 350.35 783.015 353.491ZM792.345 357.642C792.958 357.958 793.459 358.578 793.459 359.02C793.459 360.384 789.203 362.067 785.752 362.067C779.89 362.067 779.15 360.731 783.779 358.505C786.9 357.005 790.424 356.65 792.345 357.642ZM808.153 372.816C807.007 375.145 803.341 376.868 790.867 380.941C786.114 382.493 781.527 384.253 780.675 384.854L779.123 385.947L777.074 384.082C773.333 380.679 773.58 380.516 788.562 376.474C796.664 374.288 804.946 371.084 807.573 369.118C808.65 368.312 808.737 368.343 808.906 369.588C809.005 370.321 808.667 371.773 808.153 372.816ZM86.2509 369.764C83.1458 371.17 81.9971 372.839 82 375.944C82.0052 382.404 87.1185 386.143 119.437 403.323C141.394 414.996 143.527 416.61 151.033 427.223C159.713 439.498 165.251 444.421 174.171 447.795C187.386 452.792 200.662 450.029 205.448 441.286C207.085 438.295 207.176 432.137 205.626 429.301C202.45 423.496 196.976 418.62 190.153 415.519C184.902 413.132 173.326 409.647 164.089 407.672C159.654 406.724 154.858 405.369 153.432 404.662C152.006 403.955 142.744 397.84 132.851 391.074C112.388 377.079 106.333 373.402 99.665 370.917C93.6438 368.675 89.4516 368.314 86.2509 369.764ZM673.922 369.674C663.622 370.963 654.332 373.597 651.435 376.05C648.78 378.299 648.102 380.626 648.602 385.777L649.014 390.018L647.354 389.677C646.441 389.489 643.88 388.928 641.662 388.429C635.459 387.035 620.788 386.723 614.803 387.858C608.293 389.093 602.028 392.063 600.146 394.806C597.149 399.174 597.042 406.861 599.915 411.418C601.557 414.022 607.901 416.397 615.882 417.397L618.906 417.776V422.406C618.906 431.023 621.125 434.377 629.512 438.443C636.403 441.783 641.458 442.77 651.743 442.785C661.912 442.799 668.417 441.743 676.309 438.797C682.827 436.363 685.496 434.363 687.363 430.513C689.427 426.255 689.516 420.194 687.568 416.639L686.262 414.255L691.326 414.607C696.956 414.998 706.496 414.194 712.227 412.845C717.809 411.532 723.949 408.532 726.034 406.101C729.53 402.023 730.464 395.647 728.176 391.474C726.441 388.309 721.085 384.811 715.337 383.091C711.199 381.852 711.018 381.724 710.355 379.59C708.908 374.93 702.843 371.42 693.547 369.863C690.324 369.324 677.694 369.201 673.922 369.674ZM98.2052 374.877C104.186 377.151 115.32 384.197 140.182 401.444C149.724 408.063 153.605 410.015 159.744 411.28C171.619 413.728 184.336 417.505 189.982 420.261C196.04 423.217 202.418 430.85 202.386 435.106C202.327 443.079 191.236 448.046 179.958 445.151C170.174 442.64 163.591 437.263 154.427 424.3C152.159 421.092 149.272 417.385 148.012 416.065C144.374 412.253 137.171 407.569 126.031 401.77C113.644 395.323 96.1797 385.523 91.7911 382.558C88.3139 380.208 85.8212 377.14 86.1299 375.591C86.6536 372.971 92.3113 372.636 98.2052 374.877ZM689.631 373.753C695.66 374.482 701.408 376.19 703.404 377.847C704.895 379.084 704.914 379.164 703.844 379.709C703.229 380.022 698.578 380.407 693.509 380.565C681.12 380.95 672.76 383.084 665.621 387.682L662.201 389.885L660.284 388.758C659.23 388.139 657.902 387.631 657.334 387.63C656.765 387.629 655.663 387.013 654.885 386.263C653.116 384.557 653.008 381.677 654.637 379.68C657.156 376.592 669.728 373.703 682.578 373.26C683.854 373.217 687.028 373.438 689.631 373.753ZM663.985 381.532C662.189 382.229 662.3 383.738 664.147 383.738C666.028 383.738 669.602 382.3 669.602 381.544C669.602 380.838 665.794 380.831 663.985 381.532ZM704.743 385.099C714.424 386.512 721.214 389.189 723.716 392.577C728.938 399.651 717.424 405.641 698.694 405.594C690.302 405.573 685.739 404.883 678.739 402.574C668.267 399.119 665.748 396.113 669.694 391.779C674.998 385.952 690.433 383.01 704.743 385.099ZM695.525 388.009C693.954 388.589 692.718 389.942 693.033 390.736C693.435 391.745 697.812 391.78 699.223 390.786C700.815 389.663 700.17 387.926 698.113 387.797C697.165 387.738 696 387.833 695.525 388.009ZM639.349 392.33C646.343 393.623 651.076 395.33 653.483 397.428C656.147 399.749 657.265 402.096 656.427 403.605C655.924 404.512 654.961 404.737 650.322 405.03C647.292 405.223 641.771 406.039 638.053 406.845C632.304 408.092 630.386 408.269 625.243 408.03C616.104 407.606 604.868 404.244 603.115 401.409C601.543 398.867 606.139 394.605 612.321 392.871C619.523 390.852 630.202 390.638 639.349 392.33ZM680.568 392.608C678.256 394.838 680.991 396.168 685.07 394.796C686.068 394.461 686.884 393.991 686.884 393.754C686.884 392.998 685.394 392.091 683.577 391.74C682.233 391.481 681.525 391.685 680.568 392.608ZM703.602 393.448C702.617 394.593 702.869 394.775 706.788 395.762C710.512 396.7 711.698 396.107 710.27 394.021C709.264 392.553 704.709 392.162 703.602 393.448ZM620.063 394.821C618.663 395.699 620.19 396.617 622.719 396.417C624.241 396.297 624.955 395.974 624.955 395.407C624.955 394.417 621.389 393.991 620.063 394.821ZM634.255 396.788C633.855 397.795 634.484 398.107 637.341 398.315C639.024 398.438 639.357 398.279 639.357 397.351C639.357 396.447 638.915 396.209 636.982 396.073C635.23 395.949 634.514 396.137 634.255 396.788ZM691.796 397.416C690.453 398.712 690.998 399.549 693.31 399.741C695.823 399.948 698.691 398.023 697.253 397.094C695.922 396.233 692.833 396.416 691.796 397.416ZM612.711 398.271C611.46 399.477 611.927 400.337 614.154 400.934C617.203 401.751 617.271 401.722 617.07 399.713C616.915 398.159 616.648 397.884 615.159 397.743C614.207 397.653 613.105 397.89 612.711 398.271ZM663.476 399.157C664.559 404.617 664.574 405.586 663.571 405.214C663.034 405.015 662.38 404.853 662.119 404.853C661.858 404.853 661.77 404.39 661.923 403.826C662.076 403.261 661.792 401.855 661.293 400.702C660.793 399.548 660.384 398.529 660.384 398.435C660.384 398.285 661.729 397.87 662.787 397.694C662.999 397.658 663.31 398.317 663.476 399.157ZM626.221 400.976C623.839 402.784 624.299 403.256 628.268 403.073C631.679 402.917 631.868 402.834 631.868 401.519C631.868 400.329 631.575 400.106 629.821 399.963C628.412 399.85 627.29 400.165 626.221 400.976ZM641.489 400.519C640.462 401.509 640.648 402.514 641.988 403.206C643.774 404.128 646.25 402.484 645.396 400.944C644.721 399.728 642.553 399.492 641.489 400.519ZM267.208 406.297C244.784 408.417 229.615 412.142 226.854 416.208C224.611 419.508 227.234 431.167 232.617 441.832C240.417 457.287 252.005 467.422 266.056 471.079C270.087 472.128 272.251 472.284 283.338 472.321C293.793 472.357 296.668 472.192 299.757 471.377C316.218 467.037 329.329 453.23 336.432 432.757C338.009 428.212 338.546 425.622 338.787 421.411C339.161 414.862 338.925 414.475 332.88 411.759C327.635 409.403 319.447 407.906 304.203 406.518C290.373 405.258 278.926 405.19 267.208 406.297ZM794.831 408.754C794.6 410.147 793.814 411.782 792.939 412.688C791.765 413.906 776.935 419.821 724.041 440.167C648.478 469.234 644.717 470.626 638.286 471.883C629.868 473.528 622.034 471.966 614.586 467.16C566.498 436.126 542.081 420.068 541.356 419C540.86 418.271 540.313 416.603 540.14 415.292L539.824 412.91L541.2 414.104C543.51 416.111 607.088 456.304 614.229 460.272C620.306 463.649 624.168 464.594 631.58 464.515C639.659 464.429 640.783 464.105 666.145 454.576C676.126 450.827 693.754 444.251 705.319 439.963C716.883 435.675 738.141 427.794 752.557 422.451C783.267 411.068 790 408.501 792.819 407.101C793.963 406.533 794.973 406.136 795.062 406.22C795.152 406.303 795.048 407.444 794.831 408.754ZM661.536 409.295C667.786 409.988 672.435 411.154 676.854 413.137C689.209 418.683 686.415 426.28 670.466 430.506C666.437 431.574 664.371 431.731 654.047 431.756C642.246 431.785 642.234 431.783 636.765 430.004C621.383 425 619.428 419.312 631.181 413.758C636.636 411.179 640.839 410.065 647.71 409.379C654.608 408.69 656.009 408.682 661.536 409.295ZM310.126 411.212C322.146 412.572 334.322 415.774 334.322 417.575C334.322 418.171 330.032 419.951 325.055 421.421C316.359 423.988 298.344 425.963 283.626 425.962C262.852 425.962 239.904 423.025 232.674 419.443L230.977 418.602L233.056 417.574C238.007 415.123 254.189 411.689 266.642 410.445C274.129 409.698 300.914 410.17 310.126 411.212ZM651.844 415.182C650.877 415.836 650.695 416.25 651.146 416.775C651.843 417.584 656.462 418.326 657.778 417.839C658.828 417.45 658.928 415.895 657.965 414.966C656.978 414.014 653.384 414.141 651.844 415.182ZM637.469 417.942C636.765 418.418 636.189 419.293 636.189 419.887C636.189 420.823 636.603 420.967 639.316 420.967C643.235 420.967 644.893 419.791 643.328 418.122C642.13 416.846 639.224 416.757 637.469 417.942ZM666.721 419.517C666.721 421.961 666.796 422.078 668.36 422.078C669.277 422.078 670.467 421.579 671.06 420.947C672.092 419.847 672.09 419.787 671.005 418.76C670.392 418.178 669.177 417.535 668.305 417.33C666.751 416.964 666.721 417.004 666.721 419.517ZM333.246 428.163C331.026 436.628 326.07 446.009 319.927 453.375C314.426 459.969 309.083 463.67 301.197 466.346C296.695 467.873 296.3 467.91 284.203 467.914C269.976 467.92 265.663 467.239 258.725 463.891C253.56 461.399 245.611 454.188 241.512 448.277C237.049 441.841 232.826 432.703 231.488 426.585C231.102 424.819 231.16 424.721 232.436 424.99C252.979 429.322 260.334 430.083 281.61 430.071C304.352 430.059 316.016 428.719 328.561 424.676C331.571 423.705 334.118 423.094 334.221 423.316C334.325 423.539 333.886 425.72 333.246 428.163ZM467.713 423.228C486.769 425.785 501.769 438.105 497.894 448.018C497.064 450.141 494.221 452.95 490.622 455.202C480.986 461.232 467.809 463.223 450.69 461.235C445.267 460.605 435.469 460.133 422.75 459.891C404.417 459.542 402.926 459.437 399.446 458.256C390.344 455.17 383.7 447.98 383.7 441.216C383.7 437.84 384.813 435.985 388.177 433.752C393.27 430.373 403.865 428.199 415.276 428.193C423.128 428.189 428.914 427.519 440.005 425.331C453.621 422.644 459.841 422.172 467.713 423.228ZM647.388 423.43C645.881 424.503 646.852 425.406 649.939 425.806C652.832 426.18 654.322 425.278 653.439 423.686C652.722 422.395 649.06 422.24 647.388 423.43ZM449.454 433.108C442.671 434.814 438.177 438.943 437.584 444.01C437.312 446.343 437.446 446.663 439.549 448.691C443.068 452.086 448.263 453.395 457.017 453.094C463.493 452.872 464.047 452.756 468.18 450.786C473.723 448.144 475.174 446.319 475.174 441.987C475.174 439.394 474.919 438.573 473.734 437.349C469.329 432.798 458.322 430.875 449.454 433.108ZM509.884 439.896C516.22 442.859 520.972 446.603 520.972 448.633C520.972 450.29 517.168 453.638 511.894 456.623C496.043 465.594 471.12 470.427 440.769 470.414C417.34 470.404 401.866 468.418 386.169 463.407C381.087 461.784 368.743 456.015 366.365 454.151C364.292 452.528 364.601 451.26 367.91 447.797C370.013 445.596 377.864 440.499 378.326 441.034C378.427 441.152 378.819 442.466 379.197 443.956C380.21 447.945 382.281 451.538 385.569 455.008C389.302 458.948 393.106 461.286 398.702 463.079C403.055 464.474 403.687 464.519 424.767 464.932C436.648 465.165 447.796 465.601 449.538 465.902C454.312 466.726 468.125 466.627 474.31 465.725C488.169 463.703 499.048 457.523 501.959 450.018C503.382 446.35 503.398 443.259 502.016 439.4L500.957 436.44L502.467 436.788C503.298 436.979 506.635 438.378 509.884 439.896Z" fill="#0D542B"/>
<path fill-rule="evenodd" clip-rule="evenodd" d="M1044.18 108.094C1037.24 109.796 1027.64 114.139 1019.98 119.044L1016.78 121.091L1010.89 119.345C1002.93 116.986 997.918 116.255 992.367 116.646C979.064 117.582 965.213 126.412 961.166 136.534C960.629 137.876 959.902 139.279 959.549 139.653C959.195 140.027 956.051 140.695 952.561 141.137C943.56 142.278 937.242 143.943 931.266 146.748C922.344 150.935 917.719 156.926 914.974 165.305C913.078 171.093 912.662 176.091 913.441 183.703C914.296 192.047 914.463 196.318 917.194 201.842C920.249 208.024 924.143 212.025 929.67 214.659C933.62 216.542 934.536 216.752 939.703 216.952C942.958 217.078 946.535 216.894 948.068 216.522C951.157 215.771 951.393 215.95 951.966 219.48C952.578 223.252 956.904 240.456 957.517 241.563C959.206 244.607 967.273 245.767 980.369 244.85C998.234 243.6 1016.6 239.589 1036.91 232.506C1061.58 223.897 1078.68 213.85 1083.38 205.191L1084.98 202.231L1080.17 183.842L1075.35 165.453L1079.2 161.516C1089.52 150.963 1091.08 137.305 1083.52 123.54C1076.75 111.211 1059.34 104.375 1044.18 108.094ZM1393.66 108.04C1392.86 108.897 1392.71 110.46 1392.71 118.041V127.027H1390.53C1389.33 127.027 1387.19 127.589 1385.78 128.277C1383.73 129.27 1383.05 129.983 1382.45 131.75C1380.9 136.283 1382.94 141.413 1386.76 142.6C1387.97 142.977 1389.29 143.533 1389.69 143.837C1390.57 144.511 1390.68 173.329 1389.83 179.665C1388.86 186.903 1386.53 189.79 1377.23 195.303C1365.36 202.339 1360.55 208.487 1359.37 218.154C1359.05 220.751 1358.48 246.142 1358.1 274.578C1357.34 330.905 1357.25 328.736 1360.6 332.421C1363.34 335.429 1366.01 336.426 1373.83 337.367C1385.4 338.758 1417.34 339.058 1433.04 337.924C1451.07 336.621 1454.39 335.793 1457.54 331.814C1460.24 328.393 1460.6 326.099 1460.34 313.683C1460.21 307.441 1459.83 283.707 1459.51 260.939C1458.84 214.608 1458.65 217.356 1462.97 210.343C1466.82 204.103 1468.28 199.757 1468.61 193.632C1469.35 180.049 1463.5 171.532 1450.07 166.61C1448.49 166.03 1444.67 165.643 1438.32 165.42C1429.9 165.124 1428.82 164.975 1428.09 164.01C1426.99 162.556 1426.91 145.49 1428 144.1C1428.39 143.594 1429.75 142.858 1431.02 142.465C1434.14 141.5 1436.11 137.999 1435.75 134.07C1435.32 129.43 1432.34 127.181 1426.47 127.069L1424.23 127.027L1424.62 118.275C1425.17 105.957 1426.66 107.023 1408.9 107.023C1395.8 107.023 1394.54 107.107 1393.66 108.04ZM1063.07 113.074C1068.52 114.92 1072.07 117.079 1075.29 120.506C1082.16 127.829 1085.23 138.797 1082.73 147.068C1081.46 151.261 1079.56 154.223 1074.82 159.415C1071.61 162.924 1070.74 164.25 1070.75 165.597C1070.76 166.54 1072.79 174.688 1075.26 183.703C1077.73 192.719 1079.88 200.679 1080.04 201.394C1080.28 202.451 1079.49 203.492 1075.79 206.973C1070.52 211.941 1066.33 214.696 1057.14 219.231C1040.04 227.67 1017.94 234.724 997.227 238.36C978.37 241.669 962.324 241.62 961.267 238.249C960.744 236.583 957.994 225.232 956.605 219.01L955.246 212.922L957.46 211.093C958.678 210.088 960.412 208.14 961.312 206.764L962.95 204.265L967.271 204.259C979.77 204.244 990.409 199.84 999.776 190.806L1003.78 186.947L1012.46 186.809C1019.99 186.69 1021.82 186.472 1026.32 185.162C1037.49 181.911 1045.41 176.859 1048.18 171.222C1049.84 167.834 1050.04 165.816 1048.82 164.84C1047.49 163.776 1045.79 165.061 1044.4 168.17C1041.45 174.774 1031.77 180.213 1019.19 182.334C1013.83 183.238 1008.3 183.384 1007.11 182.654C1006.51 182.288 1006.47 181.912 1006.96 181.032C1007.92 179.308 1007.75 176.656 1006.66 176.252C1005.45 175.803 1004.32 176.733 1002.96 179.32C998.943 186.906 988.062 195.332 978.793 198.031C974.651 199.237 966.731 200.08 965.831 199.411C965.514 199.176 965.255 197.638 965.255 195.993C965.255 193.75 965.002 192.847 964.246 192.384C962.601 191.375 961.276 192.633 960.83 195.626C959.856 202.162 954.121 209.211 947.954 211.454C945.133 212.48 943.678 212.664 939.845 212.477C933.82 212.183 929.862 210.396 925.843 206.154C920.821 200.854 918.311 194.41 917.043 183.56C915.642 171.579 918.311 162.418 925.054 156.06C930.985 150.468 943.255 146.089 955.92 145.045C962.327 144.517 962.865 144.258 964.076 141.106C967.585 131.972 977.277 124.212 988.298 121.712C994.303 120.349 1000.05 120.893 1008.86 123.661C1017.02 126.22 1017.85 126.314 1019.76 124.889C1022.05 123.175 1033.5 116.973 1038.09 114.953C1040.46 113.91 1043.84 112.703 1045.6 112.271C1049.97 111.195 1058.7 111.596 1063.07 113.074ZM1420.07 112.112C1420.26 112.295 1420.21 115.662 1419.96 119.596L1419.5 126.749L1408.41 126.9L1397.32 127.051V119.194V111.337L1408.52 111.559C1414.69 111.681 1419.88 111.93 1420.07 112.112ZM1428.43 132.522C1429.52 132.812 1429.91 133.333 1430.05 134.68C1430.23 136.515 1429.27 137.749 1425.91 139.971C1422.79 142.033 1422.41 143.626 1422.57 153.976C1422.72 164.249 1423.1 166.183 1425.32 168.202C1426.73 169.482 1427.2 169.545 1437.27 169.812L1447.75 170.09L1451.77 171.998C1457 174.481 1461.29 178.591 1462.84 182.609C1466.08 191.017 1464.81 198.847 1458.7 208.129L1457.07 210.607L1455.71 207.65L1454.36 204.692L1455.78 203.062C1457.53 201.059 1458.96 196.594 1458.96 193.149C1458.96 186.525 1455.37 181.173 1449.06 178.395C1445.67 176.904 1444.83 176.781 1436.72 176.58C1427.05 176.341 1424.87 176.861 1423.76 179.676C1422.63 182.547 1424.38 187.761 1427.92 192.105C1429.59 194.149 1432.94 196.395 1441.6 201.271C1447.3 204.477 1451.53 208.673 1452.87 212.438C1454.53 217.117 1454.87 225.203 1455.53 275.664C1456.01 312.833 1456.01 325.531 1455.51 326.782C1454.1 330.334 1451.65 331.81 1445.89 332.583C1426.39 335.197 1375.24 334.835 1367.56 332.029C1365.52 331.284 1363.48 329.478 1362.38 327.449C1361.65 326.095 1361.63 320.702 1362.18 286.053C1363.16 225.092 1363.48 216.873 1365 213.071C1366.85 208.434 1370.19 205.189 1378.46 200.002C1387.06 194.606 1390.53 191.464 1392.51 187.28C1394.64 182.801 1394.99 179.035 1395 160.587C1395.02 144.079 1395 143.836 1393.7 141.973C1392.98 140.934 1391.36 139.572 1390.12 138.945C1387.91 137.837 1387.14 136.568 1387.01 133.874C1386.97 133.158 1387.36 132.561 1387.96 132.41C1389.59 132 1426.85 132.102 1428.43 132.522ZM1403.77 146.03C1403.01 146.762 1402.87 163.943 1403.6 166.475C1404.04 168.03 1405.85 168.649 1406.6 167.505C1406.87 167.093 1407.1 162.242 1407.1 156.726C1407.11 146.792 1406.86 145.363 1405.1 145.363C1404.75 145.363 1404.15 145.663 1403.77 146.03ZM1274.43 150.737C1269.3 153.303 1269.19 153.584 1268.83 165.402C1268.66 171.037 1268.28 176.572 1267.99 177.704C1267.57 179.314 1266.17 180.885 1261.56 184.927C1247.95 196.866 1244.23 201.219 1241.42 208.467C1240.39 211.126 1240.14 212.946 1240.13 217.876C1240.12 223.446 1240.27 224.294 1241.77 227.44C1244.42 232.977 1250.25 237.785 1256.78 239.824C1258.03 240.212 1260.58 241.489 1262.46 242.66C1271.31 248.175 1281.75 249.312 1289.75 245.629C1292.28 244.463 1294.35 243.991 1298.07 243.735C1304.08 243.321 1309.02 241.216 1313.75 237.047C1320.75 230.871 1323.9 219.651 1321.32 210.074C1319.51 203.384 1315.8 199.036 1305.28 191.301C1297.26 185.398 1293.08 181.609 1292.19 179.433C1291.35 177.367 1291.39 170.465 1292.29 161.864C1292.94 155.623 1292.92 154.75 1292.09 153.526C1290.63 151.368 1286.32 149.663 1281.66 149.398C1278.02 149.191 1277.21 149.341 1274.43 150.737ZM1284.04 153.925C1285.07 154.09 1286.59 154.655 1287.43 155.181C1288.81 156.058 1288.85 156.17 1287.86 156.545C1284.89 157.673 1274.97 156.723 1274.97 155.31C1274.97 155.035 1275.04 154.805 1275.12 154.801C1275.2 154.797 1276.3 154.438 1277.57 154.005C1278.83 153.572 1280.39 153.309 1281.02 153.421C1281.66 153.533 1283.02 153.76 1284.04 153.925ZM1282.24 161.211L1287.98 161.604L1287.55 165.291C1286.82 171.656 1287 177.759 1288.02 180.623C1289.24 184.09 1293.65 188.382 1303.75 195.954C1315.72 204.919 1317.94 208.489 1317.47 218.069C1317.14 224.713 1315.66 228.7 1312.06 232.557C1309.2 235.63 1303.89 238.459 1299.89 239.049C1297.07 239.466 1296.91 239.124 1298.52 236.051C1300.98 231.356 1301.54 223.909 1299.98 216.623C1299.01 212.071 1298.08 209.913 1296.58 208.715C1295.8 208.087 1295.51 208.105 1294.76 208.828C1293.96 209.602 1294 210.171 1295.16 214.614C1296.89 221.288 1296.91 228.368 1295.19 232.681C1292.24 240.096 1288.65 242.654 1280.63 243.046C1276.61 243.242 1274.81 243.051 1271.45 242.064C1267.75 240.983 1266.82 240.405 1263.43 237.137C1259.34 233.177 1257.52 229.707 1256.8 224.45C1255.93 218.128 1259.12 210.142 1265.42 202.905C1269.14 198.636 1269.96 196.621 1268.21 196.065C1267.1 195.712 1260.77 201.866 1257.7 206.293C1251.72 214.919 1250.72 223.675 1254.59 233.413C1255.2 234.933 1253.85 234.325 1250.86 231.731C1249.02 230.141 1247.26 227.868 1246.12 225.637C1244.4 222.266 1244.31 221.811 1244.54 216.922C1244.74 212.538 1245.05 211.181 1246.65 207.886C1249.27 202.487 1252.27 198.951 1259.02 193.298C1272.89 181.691 1272.37 182.574 1272.95 169.812C1273.18 164.769 1273.48 160.466 1273.62 160.248C1273.75 160.031 1274.45 160.07 1275.18 160.335C1275.9 160.601 1279.08 160.995 1282.24 161.211ZM1443.9 181.515C1450.55 182.89 1454.31 187.045 1454.34 193.033C1454.36 197.912 1451.54 201.83 1449.43 199.865C1449.13 199.585 1446 197.961 1442.48 196.254C1433.28 191.79 1428.43 187.192 1428.43 182.924C1428.43 181.705 1428.71 181.519 1430.88 181.332C1436.1 180.878 1441.17 180.949 1443.9 181.515ZM1155.15 194.826C1146.07 196.57 1139.24 201.849 1135.75 209.819L1134.41 212.875L1134.25 258.381C1134.07 308.423 1134.03 307.816 1137.53 311.64C1140 314.331 1144.8 316.886 1149.97 318.262C1153.97 319.324 1156.08 319.489 1166.09 319.522C1176.42 319.556 1178.08 319.43 1182.11 318.303C1184.59 317.611 1187.84 316.446 1189.34 315.713C1192.73 314.056 1196.59 310.086 1197.56 307.255C1198.57 304.332 1199.02 220.761 1198.06 215.405C1197.17 210.47 1195.07 206.479 1191.3 202.545C1185.12 196.105 1179.3 194.224 1165.86 194.322C1161.23 194.355 1156.41 194.582 1155.15 194.826ZM1174.15 198.986C1180.22 199.543 1186.76 203.24 1190.24 208.092C1191.69 210.107 1194.03 216.591 1194.03 218.588C1194.03 219.692 1187.44 222.409 1182.22 223.458C1169.95 225.924 1144.12 223.8 1139.73 219.965C1137.59 218.098 1139.94 210.103 1143.91 205.744C1147.62 201.66 1153.06 199.428 1160.91 198.769C1166.02 198.34 1167.35 198.361 1174.15 198.986ZM1151.41 205.361C1150.09 206.642 1149.94 207.633 1150.94 208.596C1151.88 209.502 1152.87 209.434 1153.95 208.39C1155.2 207.19 1155.09 205.531 1153.72 204.825C1152.81 204.358 1152.34 204.468 1151.41 205.361ZM872.165 205.948C866.787 209.367 866.265 215.533 870.648 223.874C871.431 225.366 880.239 237.6 890.221 251.062C900.202 264.523 908.158 275.725 907.9 275.956C907.642 276.188 903.707 277.172 899.155 278.145C882.382 281.728 872.008 286.21 867.936 291.631C866.438 293.626 866.241 294.349 866.241 297.837C866.241 303.183 867.743 315.21 869.092 320.662C871.613 330.855 876.733 342.126 882.848 350.943C887.085 357.053 896.646 366.548 902.355 370.315C914.856 378.563 919.971 381.424 925.211 383.1C942.3 388.566 970.991 389.094 987.91 384.255C992.072 383.065 997.745 380.394 999.604 378.75C1000.24 378.19 1003.48 375.996 1006.81 373.874C1014.5 368.979 1020.03 364.379 1024.44 359.203C1038 343.297 1044.49 326.2 1045.76 303.051C1046.09 297.17 1045.99 295.583 1045.2 293.574C1041.4 283.999 1020.49 277.273 985.202 274.278C975.354 273.443 946.638 272.991 938.949 273.55C932.817 273.997 932.386 273.959 931.394 272.899C930.815 272.28 925.075 263.898 918.637 254.271C889.908 211.307 887.929 208.676 882.454 206.139C879.158 204.612 874.407 204.523 872.165 205.948ZM1178.02 205.485C1176.01 207.417 1178.89 211.009 1181.05 209.277C1182.28 208.29 1182.15 206.082 1180.82 205.393C1179.38 204.651 1178.86 204.668 1178.02 205.485ZM1163.72 206.175C1162.86 208.347 1164.96 210.601 1166.81 209.479C1168.99 208.157 1168.05 205.374 1165.43 205.374C1164.66 205.374 1163.9 205.734 1163.72 206.175ZM881.098 210.326C882.273 210.91 884.055 212.223 885.056 213.243C886.058 214.263 892.297 223.224 898.921 233.156C929.5 279.007 936.387 288.981 939.879 292.474C942.293 294.887 944.425 296.156 952.19 299.799C957.356 302.222 963.033 305.32 964.806 306.684C967.658 308.877 972.816 315.241 972.816 316.567C972.816 317.149 936.739 317.18 933.354 316.602L931.05 316.208L930.07 308.716C928.279 295.01 928.199 294.762 923.418 288C921.057 284.66 916.215 278.143 912.657 273.517C909.099 268.891 901.139 258.23 894.967 249.826C888.795 241.422 881.642 231.737 879.071 228.305C872.364 219.352 870.561 213.957 873.196 210.727C874.677 208.911 877.921 208.746 881.098 210.326ZM1151.11 227.92C1158.31 229.138 1174 229.299 1180.15 228.219C1182.5 227.806 1186.58 226.765 1189.23 225.903L1194.03 224.336V229.883C1194.03 236.403 1193.51 237.226 1188.15 239.162C1177.17 243.123 1158.03 243.186 1145.04 239.302C1138.74 237.417 1138.73 237.405 1138.73 230.411V224.395L1142.04 225.67C1143.86 226.371 1147.94 227.384 1151.11 227.92ZM1373.46 227.878C1369.65 229.068 1369.77 227.707 1369.36 274.274L1368.99 316.226L1370.21 318.07C1370.93 319.158 1372.54 320.41 1374.15 321.126C1376.84 322.327 1377.18 322.338 1409.42 322.338C1440.93 322.338 1442.03 322.303 1443.92 321.227C1445 320.616 1446.42 319.408 1447.09 318.543C1448.3 316.974 1448.3 316.863 1448.2 275.336C1448.11 236.237 1448.04 233.577 1447.05 231.639C1444.94 227.491 1446.51 227.662 1408.88 227.482C1387.56 227.381 1374.59 227.525 1373.46 227.878ZM1442.33 232.551L1443.69 233.612L1444.18 273.44C1444.44 295.346 1444.5 313.868 1444.31 314.601C1444.12 315.334 1443.27 316.375 1442.41 316.913C1440.98 317.819 1438.48 317.893 1409.44 317.893C1392.16 317.893 1377.31 317.701 1376.44 317.467C1372.98 316.533 1373.1 318.455 1373.73 273.487C1374.05 250.916 1374.44 232.233 1374.61 231.969C1374.78 231.705 1389.78 231.489 1407.95 231.489C1439.6 231.489 1441.03 231.533 1442.33 232.551ZM1529.37 241.074C1525.2 243.875 1518.97 254.214 1516.2 262.918C1514.8 267.324 1514.62 268.793 1514.59 275.941L1514.55 283.998L1511.3 288.351L1508.04 292.704L1507.79 282.517C1507.51 271.39 1506.79 267.918 1504.12 264.854C1501.03 261.321 1497.43 263.429 1495.34 269.994C1493.12 276.946 1492.69 280.05 1492.68 289.277C1492.66 297.881 1492.76 298.743 1494.31 303.291L1495.95 308.135L1494.22 310.236C1491.61 313.382 1481.52 322.621 1478.25 324.849C1475.9 326.447 1475.38 327.105 1475.38 328.46C1475.38 329.829 1475.64 330.146 1476.87 330.284C1478.57 330.475 1482.23 327.998 1490.17 321.278L1495.16 317.052L1500.54 318.856C1505.79 320.618 1506.13 320.659 1515.42 320.619C1523.27 320.585 1525.71 320.37 1529.45 319.381C1542.92 315.823 1542.96 310.269 1529.53 306.757C1525.33 305.658 1510.96 305.056 1507.5 305.834C1506.15 306.137 1505.05 306.223 1505.05 306.027C1505.05 305.83 1506.23 304.267 1507.67 302.555L1510.29 299.442L1518.18 299.108C1530.55 298.586 1541.05 295.581 1548.75 290.366C1554.74 286.31 1556.03 283.125 1552.67 280.72C1551.22 279.68 1550.31 279.56 1544.32 279.619C1536.73 279.694 1531.46 280.811 1523.98 283.933L1519.47 285.814L1520.56 284.35C1522.83 281.315 1525.18 279.508 1528.17 278.496C1537.85 275.225 1548.07 268.497 1553.29 261.962C1558.77 255.098 1557.86 251.313 1550.76 251.375C1547.23 251.405 1542.99 253.089 1537.75 256.54C1535.86 257.781 1534.2 258.678 1534.05 258.534C1533.9 258.391 1534.04 257.31 1534.37 256.133C1536.42 248.802 1536.19 242.653 1533.82 240.796C1532.2 239.532 1531.61 239.569 1529.37 241.074ZM1149.62 245.092C1157.48 246.687 1166.89 247.245 1173.98 246.535C1181.02 245.831 1188.36 244.274 1191.1 242.903C1192.05 242.432 1193.09 242.047 1193.43 242.047C1193.84 242.047 1194.03 251.9 1194.03 273.469C1194.03 299.436 1193.89 305.151 1193.22 306.391C1190.11 312.123 1179.41 315.948 1166.48 315.948C1155.39 315.948 1146.05 313.658 1141.99 309.943C1138.61 306.849 1138.73 308.203 1138.73 273.533V241.62L1142.11 242.937C1143.97 243.661 1147.35 244.63 1149.62 245.092ZM1426.61 246.711C1423.22 247.879 1419.27 250.319 1416.77 252.798C1414.6 254.941 1411.15 260.878 1411.15 262.467C1411.15 263.466 1410.31 263.334 1407.24 261.848C1403.22 259.906 1400.64 259.583 1399.05 260.823C1396.95 262.464 1397.93 263.763 1402.86 265.899C1406.9 267.651 1407.17 267.863 1406.17 268.582C1405.33 269.194 1403.83 269.281 1399.2 268.987C1393.86 268.647 1393.06 268.726 1390.72 269.82C1384.81 272.578 1380.9 280.683 1382.02 287.868C1382.7 292.265 1387.08 295.945 1391.62 295.945C1400.13 295.945 1406.84 287.592 1406.46 277.481C1406.33 274.096 1407.22 272.446 1409.57 271.729C1411.53 271.128 1411.67 272.582 1409.96 275.719C1407.87 279.553 1407.37 282.902 1408.25 287.201C1410.12 296.386 1416.06 302.259 1423.53 302.307C1427.59 302.333 1429.99 301.203 1432.67 297.997C1434.18 296.195 1434.48 295.322 1434.67 292.091C1435.27 281.783 1427.79 271.006 1420 270.953C1418.53 270.943 1418.14 270.678 1417.92 269.544C1417.67 268.312 1418.04 267.939 1421.04 266.398C1429.59 262.005 1436.25 250.706 1432.46 247.048C1431.14 245.771 1429.6 245.682 1426.61 246.711ZM1531.54 248.02C1531.51 254.096 1528.38 262.475 1522.74 271.562L1519.16 277.331L1518.99 273.811C1518.77 269.4 1520.47 262.677 1523.22 257.099C1525.38 252.698 1530.1 245.936 1531 245.936C1531.3 245.936 1531.54 246.874 1531.54 248.02ZM1428.06 253.755C1423.63 261.604 1414.01 266.983 1417.34 259.747C1418.64 256.921 1422.37 253.489 1425.76 252.005C1429.52 250.356 1429.84 250.6 1428.06 253.755ZM1551.71 255.977C1551.71 257.085 1548.3 261.362 1545.53 263.721C1539.34 269.001 1527.51 275.401 1527.51 273.471C1527.51 273.334 1528.44 271.697 1529.57 269.832C1533.22 263.828 1545 255.912 1550.99 255.439C1551.39 255.408 1551.71 255.65 1551.71 255.977ZM1060.48 260.954C1056.19 263.052 1053.37 266.341 1051.95 270.913C1050.69 274.975 1051.15 285.035 1052.87 291.16C1055.49 300.473 1060.33 310.028 1066.48 317.988C1069.63 322.072 1071.35 323.192 1072.75 322.072C1073.19 321.723 1074.54 319.549 1075.75 317.242C1076.96 314.935 1078.8 312.325 1079.84 311.442C1081.61 309.946 1082.06 309.836 1086.53 309.836C1096.02 309.836 1097.55 308.539 1100.15 298.305C1100.5 296.932 1101.29 295.601 1102.04 295.13C1102.74 294.683 1106.04 293.924 1109.36 293.443C1116.54 292.404 1117.28 291.926 1116.06 289.107C1113.56 283.352 1105.82 275.266 1098 270.237C1093.1 267.089 1083.93 262.557 1079.1 260.897C1076.81 260.108 1073.71 259.618 1069.89 259.442C1064.29 259.183 1064.02 259.227 1060.48 260.954ZM1073.63 264.028C1083.23 266.207 1097.75 274.69 1105.54 282.669C1108.27 285.465 1110.5 287.911 1110.5 288.104C1110.5 288.297 1108.15 288.872 1105.27 289.383C1098.53 290.581 1097.51 291.252 1096.37 295.254C1094.04 303.413 1093.55 304.514 1092.06 304.903C1091.27 305.11 1088.48 305.305 1085.85 305.335C1078.62 305.419 1075.96 307.12 1072.35 313.962L1070.91 316.699L1068.72 313.407C1057.48 296.502 1052.56 277.563 1057.35 269.668C1058.85 267.195 1062.28 264.761 1065.4 263.952C1068.98 263.023 1069.21 263.025 1073.63 264.028ZM1502.9 272.369C1504.12 277.007 1504.34 290.368 1503.27 294.594C1502.2 298.758 1499.99 303.301 1499.15 303.037C1498.75 302.911 1498.12 301.701 1497.75 300.349C1496.9 297.248 1496.8 284.053 1497.59 279.275C1498.39 274.447 1500.52 268.099 1501.28 268.332C1501.61 268.435 1502.34 270.252 1502.9 272.369ZM1261.48 269.306C1260.71 269.614 1258.86 270.707 1257.38 271.735C1255.51 273.029 1254.44 273.45 1253.88 273.105C1252.15 272.031 1249 271.55 1246.82 272.029C1243.56 272.747 1241.7 274.786 1236.39 283.443C1230.6 292.885 1228.61 296.621 1225.18 304.526L1222.53 310.608L1219.29 311.818C1212.59 314.322 1206.35 319.682 1193.98 333.541C1181.68 347.334 1171.21 360.174 1161.88 372.903C1151.93 386.478 1149.52 390.802 1149.2 395.673C1148.99 398.942 1149.07 399.255 1150.43 400.112C1152.16 401.204 1155.97 400.721 1161.21 398.747C1170.3 395.321 1195.48 381.747 1210.23 372.319C1227.64 361.194 1237.37 352.329 1241.89 343.465C1245.79 335.814 1246.2 328.868 1243.18 321.589L1241.7 318.007L1242.98 315.45C1247.09 307.257 1255.79 294.452 1263.75 284.87C1271.31 275.777 1271.01 276.334 1269.79 273.731C1267.94 269.763 1264.67 268.026 1261.48 269.306ZM1400.19 274.178C1401.44 275.077 1401.66 275.72 1401.81 278.809C1401.95 281.844 1401.73 282.849 1400.37 285.359C1397.1 291.391 1391.7 293.557 1388.25 290.223C1386.81 288.831 1386.66 288.331 1386.69 284.679C1386.71 280.351 1387.89 277.343 1390.5 275.002C1393.36 272.425 1397.28 272.091 1400.19 274.178ZM1264.85 274.763C1265.33 275.623 1264.91 276.38 1262.47 279.069C1256.38 285.776 1246.12 300.284 1241.01 309.419C1239.51 312.094 1238.08 314.281 1237.83 314.281C1237.59 314.281 1236.21 313.647 1234.77 312.872C1233.33 312.096 1231.11 311.283 1229.83 311.066L1227.52 310.67L1229.7 305.569C1230.9 302.764 1233.13 298.388 1234.65 295.845C1236.17 293.302 1238.65 289.024 1240.16 286.338C1243.33 280.688 1246.33 276.66 1247.7 276.21C1248.23 276.038 1249.35 276.064 1250.2 276.269C1251.45 276.57 1251.66 276.863 1251.35 277.819C1250.41 280.641 1250.41 281.856 1251.34 282.601C1252.18 283.276 1252.84 282.812 1257.13 278.541C1262.06 273.614 1263.76 272.787 1264.85 274.763ZM1422.55 275.611C1426.62 277.653 1429.66 283.455 1430.05 289.945L1430.3 294.248L1428.27 296.208C1426.48 297.937 1425.89 298.167 1423.3 298.167C1420.74 298.167 1420.07 297.912 1418.08 296.173C1412.41 291.232 1410.57 281.24 1414.53 276.848C1416.38 274.798 1419.86 274.261 1422.55 275.611ZM979.495 278.193C1004.57 279.793 1019.93 282.845 1032.51 288.725C1041.08 292.729 1043.03 295.616 1040.06 299.891C1035.14 306.972 1016.66 312.737 989.522 315.657C977.418 316.959 977.873 317.03 976.227 313.587C974.433 309.834 966.771 302.31 962.158 299.771C960.257 298.724 955.889 296.639 952.452 295.136C945.261 291.994 942.976 290.104 938.095 283.259C936.279 280.714 934.794 278.542 934.794 278.433C934.794 277.571 967.043 277.398 979.495 278.193ZM912.588 281.359C913.939 282.952 922.711 294.931 923.229 295.891C923.875 297.087 925.495 306.505 925.952 311.724L926.322 315.948H923.975C914.183 315.948 890.245 310.549 879.761 305.975C874.156 303.531 870.273 299.629 870.273 296.442C870.273 294.622 874.038 291.515 879.209 289.069C885.245 286.213 888.591 285.126 898.213 282.893C910.401 280.064 911.398 279.957 912.588 281.359ZM1548.83 283.889C1548.83 285.259 1545.08 288.114 1540.75 290.044C1534.06 293.024 1528.21 294.338 1520.31 294.633L1513.4 294.891L1515.25 293.309C1519.26 289.893 1530.7 285.265 1538.75 283.81C1543.3 282.987 1548.83 283.031 1548.83 283.889ZM1040.79 310.74C1038.84 325.993 1034.25 338.145 1025.9 350.194C1015.77 364.793 999.337 375.653 981.169 379.75C962.954 383.857 937.731 382.135 921.043 375.645C908.192 370.647 895.863 361.207 887.643 350.074C880.768 340.762 875.014 327.448 872.653 315.393C870.675 305.292 870.645 305.495 873.778 307.646C878.631 310.98 890.709 315.095 902.257 317.35C925.733 321.935 965.451 322.866 994.131 319.505C1014.7 317.093 1030.6 312.626 1039.07 306.877C1040.17 306.124 1041.16 305.575 1041.25 305.659C1041.34 305.742 1041.14 308.028 1040.79 310.74ZM1529.2 311.055C1531.55 311.771 1533.57 312.622 1533.68 312.946C1534.11 314.204 1527.16 316.033 1519.16 316.766C1511.89 317.431 1499.86 315.19 1499.86 313.17C1499.86 312.409 1504.21 310.507 1507.51 309.827C1508.85 309.551 1513.31 309.42 1517.43 309.538C1523.23 309.703 1525.89 310.046 1529.2 311.055ZM1230.84 316.204C1240.44 319.471 1243.35 330.449 1237.69 342.006C1236.56 344.3 1234.47 347.045 1231.78 349.749L1227.62 353.938L1225.39 349.807C1221.31 342.261 1212.33 335.376 1208.67 336.986C1206.59 337.899 1206.98 339.11 1210 341.103C1214.63 344.161 1218.16 347.644 1220.84 351.79C1222.25 353.979 1223.41 356.03 1223.41 356.348C1223.41 357.327 1215.42 363.891 1211.48 366.153C1211.02 366.417 1210.26 365.564 1209.26 363.662C1207.43 360.185 1202.59 355.104 1199.8 353.743C1196.82 352.292 1194.14 351.846 1193.14 352.64C1191.69 353.806 1192.2 354.627 1195.71 356.715C1201.62 360.235 1207.79 367.94 1206.03 369.608C1205.09 370.501 1192.94 377.626 1192.36 377.626C1192.13 377.626 1191.51 376.762 1190.99 375.705C1188.7 371.067 1181.85 366.08 1179.9 367.636C1179.44 368.01 1179.05 368.536 1179.05 368.806C1179.05 369.075 1181.13 371.449 1183.66 374.082C1186.2 376.714 1188.27 379.174 1188.27 379.547C1188.27 380.288 1179.8 384.905 1169.15 389.97C1157.19 395.659 1153.7 396.603 1153.71 394.156C1153.71 389.263 1187.21 346.6 1205.98 327.568C1216.81 316.597 1223.29 313.635 1230.84 316.204ZM1118.01 326.661C1116.1 327.59 1114.14 330.503 1113.69 333.059C1113.07 336.6 1112.81 336.706 1109.02 335.018C1106.89 334.072 1104.28 333.418 1102.1 333.279C1098.71 333.064 1098.54 333.116 1097.2 334.841C1096.43 335.823 1094.96 337.507 1093.92 338.582C1092.26 340.303 1091.79 340.499 1089.99 340.218C1088.87 340.042 1086.09 339.01 1083.81 337.925C1079.19 335.726 1076.29 335.391 1075.42 336.958C1075.11 337.51 1074.29 340.824 1073.59 344.32C1070.1 361.87 1076.16 376.909 1089.11 382.828C1092.72 384.476 1093.29 384.57 1099.55 384.541C1105.45 384.514 1106.62 384.338 1110.21 382.938C1125.44 376.998 1137.72 359.205 1136.91 344.249C1136.51 336.822 1131.7 328.907 1126.26 326.714C1123.9 325.766 1119.89 325.739 1118.01 326.661ZM1126.05 331.645C1128.22 333.073 1130.98 337.501 1131.53 340.45C1132.09 343.393 1130.75 344.478 1126.96 344.171C1124.34 343.959 1121.91 342.817 1116.88 339.438C1116.74 339.346 1117.03 338.461 1117.52 337.47C1118.01 336.48 1118.6 334.795 1118.84 333.727C1119.08 332.658 1119.53 331.472 1119.85 331.09C1120.77 329.992 1123.98 330.279 1126.05 331.645ZM1107.92 339.489C1110.13 340.518 1113.61 342.554 1115.65 344.014C1121.03 347.854 1123.87 348.94 1128.47 348.914L1132.33 348.892L1131.99 350.618C1131.43 353.474 1129.2 358.822 1127.23 362.043C1119.75 374.245 1108.58 381.17 1097.94 380.212C1084.6 379.01 1076.35 367.349 1077.26 351.008C1077.58 345.392 1078.53 340.953 1079.42 340.953C1079.65 340.953 1081.57 341.736 1083.69 342.693C1090.9 345.947 1094.66 345.37 1099.03 340.333C1100.53 338.606 1101.85 337.619 1102.65 337.619C1103.34 337.619 1105.71 338.461 1107.92 339.489ZM1530.46 344.562C1523.74 345.867 1514.56 349.784 1503.63 356.014C1489.71 363.941 1484.11 364.705 1469.4 360.687C1449.84 355.346 1449.73 355.322 1442.48 355.004C1433.55 354.612 1431.97 354.92 1412.65 360.773C1404.1 363.367 1391.27 367.256 1384.14 369.417C1377.02 371.578 1366.52 374.955 1360.81 376.923C1355.11 378.89 1344.86 382.322 1338.05 384.548C1314.05 392.392 1296.83 398.345 1293.59 399.913C1288.48 402.384 1286.21 406.154 1286.21 412.188C1286.2 417.104 1287.31 420.516 1289.61 422.64C1290.77 423.714 1308.83 435.625 1329.74 449.111C1372.32 476.572 1370.91 475.834 1381.84 476.367C1391.9 476.86 1389.21 477.765 1469.69 446.81C1519.34 427.711 1542.48 418.602 1545.49 416.978C1548.61 415.294 1549.49 413.354 1550.17 406.691C1550.94 399.036 1550.55 398.185 1544.48 394.393C1537.72 390.171 1535.35 388.471 1535.42 387.881C1535.46 387.589 1539.99 385.837 1545.5 383.988C1551.24 382.064 1556.9 379.773 1558.75 378.631C1563.4 375.753 1564.04 373.965 1564 363.954C1563.96 355.261 1563.39 352.364 1561.24 349.897C1559.34 347.719 1554.76 345.595 1549.75 344.572C1544.88 343.576 1535.57 343.571 1530.46 344.562ZM1285.77 346.537C1275.4 348.318 1263.68 354.472 1252.79 363.852C1246.45 369.317 1240.69 375.571 1230.91 387.627C1222.78 397.642 1218.26 402.307 1215.23 403.798C1211.63 405.571 1206.31 406.427 1196.62 406.791C1173.66 407.655 1160.68 409.247 1145 413.126C1123.26 418.502 1110.88 425.375 1105.87 434.858C1103.25 439.804 1102.84 446.156 1104.73 452.183C1109.48 467.341 1120.53 480.207 1134.69 487.086C1148.04 493.564 1163.28 496.374 1187.98 496.91C1222.15 497.652 1240.97 493.87 1258.21 482.799C1269.67 475.443 1277.12 466.04 1281.67 453.194C1283.34 448.484 1283.54 447.228 1283.58 441.526C1283.62 433.859 1282.76 431.567 1278.03 426.735C1273.13 421.734 1267.56 418.508 1259.42 415.963C1254.31 414.366 1252.33 413.421 1250.34 411.631C1248.32 409.808 1248.26 407.106 1250.13 402.012C1253.8 391.99 1263.91 382.581 1283.74 370.753C1293.63 364.848 1298.19 361.326 1299.98 358.211C1302.53 353.754 1301.59 349.271 1297.7 347.332C1295.52 346.241 1289.73 345.856 1285.77 346.537ZM1551.1 349.047C1557.37 351.074 1560.69 355.86 1559.29 360.874C1557.98 365.571 1552.65 368.429 1537.09 372.77C1523.97 376.429 1522.2 377.108 1520.95 378.946C1518.26 382.907 1522.7 386.966 1540.72 397.033C1544.46 399.119 1544.91 399.552 1544.76 400.862C1544.53 402.731 1543.54 403.132 1494.46 421.182C1474.18 428.64 1448.77 438.057 1438 442.11C1427.23 446.163 1413.49 451.331 1407.47 453.594C1391.12 459.742 1388.12 460.587 1382.71 460.571C1374.57 460.548 1370.81 458.909 1352 447.17C1322.75 428.924 1296.64 412.256 1295.03 410.811C1294.03 409.906 1293.04 408.51 1292.83 407.711C1292 404.535 1294.98 403.282 1332.58 390.971C1341.77 387.963 1353.25 384.111 1358.1 382.412C1371.3 377.785 1399.6 369.051 1425.04 361.752C1437.74 358.109 1444.72 358.39 1462.2 363.245C1478.83 367.866 1483.39 368.391 1490.85 366.55C1495.8 365.329 1499.22 363.754 1510.54 357.467C1519.95 352.242 1526.47 349.586 1532.63 348.463C1538.27 347.437 1546.96 347.712 1551.1 349.047ZM1292.55 353.163C1291.14 355.078 1285.4 357.067 1281.28 357.067C1273.41 357.067 1283.4 351.718 1291.57 351.554L1293.77 351.51L1292.55 353.163ZM1533.85 353.491C1530.29 354.546 1527.01 357.977 1527.01 360.63C1527.01 363.769 1531.46 366.501 1536.6 366.509C1540.2 366.516 1545.8 364.401 1547.69 362.32C1553.38 356.066 1544.42 350.35 1533.85 353.491ZM1543.18 357.642C1543.79 357.958 1544.29 358.578 1544.29 359.02C1544.29 360.384 1540.03 362.067 1536.58 362.067C1530.72 362.067 1529.98 360.731 1534.61 358.505C1537.73 357.005 1541.25 356.65 1543.18 357.642ZM1558.98 372.816C1557.84 375.145 1554.17 376.868 1541.7 380.941C1536.94 382.493 1532.36 384.253 1531.5 384.854L1529.95 385.947L1527.9 384.082C1524.16 380.679 1524.41 380.516 1539.39 376.474C1547.49 374.288 1555.78 371.084 1558.4 369.118C1559.48 368.312 1559.57 368.343 1559.74 369.588C1559.83 370.321 1559.5 371.773 1558.98 372.816ZM837.081 369.764C833.976 371.17 832.827 372.839 832.83 375.944C832.835 382.404 837.949 386.143 870.267 403.323C892.224 414.996 894.357 416.61 901.863 427.223C910.544 439.498 916.081 444.421 925.001 447.795C938.216 452.792 951.492 450.029 956.278 441.286C957.915 438.295 958.006 432.137 956.456 429.301C953.28 423.496 947.806 418.62 940.983 415.519C935.732 413.132 924.156 409.647 914.919 407.672C910.484 406.724 905.688 405.369 904.262 404.662C902.836 403.955 893.574 397.84 883.681 391.074C863.218 377.079 857.163 373.402 850.495 370.917C844.474 368.675 840.282 368.314 837.081 369.764ZM1424.75 369.674C1414.45 370.963 1405.16 373.597 1402.27 376.05C1399.61 378.299 1398.93 380.626 1399.43 385.777L1399.84 390.018L1398.18 389.677C1397.27 389.489 1394.71 388.928 1392.49 388.429C1386.29 387.035 1371.62 386.723 1365.63 387.858C1359.12 389.093 1352.86 392.063 1350.98 394.806C1347.98 399.174 1347.87 406.861 1350.75 411.418C1352.39 414.022 1358.73 416.397 1366.71 417.397L1369.74 417.776V422.406C1369.74 431.023 1371.95 434.377 1380.34 438.443C1387.23 441.783 1392.29 442.77 1402.57 442.785C1412.74 442.799 1419.25 441.743 1427.14 438.797C1433.66 436.363 1436.33 434.363 1438.19 430.513C1440.26 426.255 1440.35 420.194 1438.4 416.639L1437.09 414.255L1442.16 414.607C1447.79 414.998 1457.33 414.194 1463.06 412.845C1468.64 411.532 1474.78 408.532 1476.86 406.101C1480.36 402.023 1481.29 395.647 1479.01 391.474C1477.27 388.309 1471.91 384.811 1466.17 383.091C1462.03 381.852 1461.85 381.724 1461.18 379.59C1459.74 374.93 1453.67 371.42 1444.38 369.863C1441.15 369.324 1428.52 369.201 1424.75 369.674ZM849.035 374.877C855.016 377.151 866.15 384.197 891.012 401.444C900.554 408.063 904.435 410.015 910.574 411.28C922.449 413.728 935.166 417.505 940.812 420.261C946.87 423.217 953.248 430.85 953.216 435.106C953.157 443.079 942.066 448.046 930.788 445.151C921.004 442.64 914.421 437.263 905.257 424.3C902.989 421.092 900.102 417.385 898.842 416.065C895.204 412.253 888.001 407.569 876.861 401.77C864.474 395.323 847.01 385.523 842.621 382.558C839.144 380.208 836.651 377.14 836.96 375.591C837.484 372.971 843.141 372.636 849.035 374.877ZM1440.46 373.753C1446.49 374.482 1452.24 376.19 1454.23 377.847C1455.73 379.084 1455.74 379.164 1454.67 379.709C1454.06 380.022 1449.41 380.407 1444.34 380.565C1431.95 380.95 1423.59 383.084 1416.45 387.682L1413.03 389.885L1411.11 388.758C1410.06 388.139 1408.73 387.631 1408.16 387.63C1407.59 387.629 1406.49 387.013 1405.72 386.263C1403.95 384.557 1403.84 381.677 1405.47 379.68C1407.99 376.592 1420.56 373.703 1433.41 373.26C1434.68 373.217 1437.86 373.438 1440.46 373.753ZM1414.81 381.532C1413.02 382.229 1413.13 383.738 1414.98 383.738C1416.86 383.738 1420.43 382.3 1420.43 381.544C1420.43 380.838 1416.62 380.831 1414.81 381.532ZM1455.57 385.099C1465.25 386.512 1472.04 389.189 1474.55 392.577C1479.77 399.651 1468.25 405.641 1449.52 405.594C1441.13 405.573 1436.57 404.883 1429.57 402.574C1419.1 399.119 1416.58 396.113 1420.52 391.779C1425.83 385.952 1441.26 383.01 1455.57 385.099ZM1446.36 388.009C1444.78 388.589 1443.55 389.942 1443.86 390.736C1444.27 391.745 1448.64 391.78 1450.05 390.786C1451.64 389.663 1451 387.926 1448.94 387.797C1447.99 387.738 1446.83 387.833 1446.36 388.009ZM1390.18 392.33C1397.17 393.623 1401.91 395.33 1404.31 397.428C1406.98 399.749 1408.09 402.096 1407.26 403.605C1406.75 404.512 1405.79 404.737 1401.15 405.03C1398.12 405.223 1392.6 406.039 1388.88 406.845C1383.13 408.092 1381.22 408.269 1376.07 408.03C1366.93 407.606 1355.7 404.244 1353.95 401.409C1352.37 398.867 1356.97 394.605 1363.15 392.871C1370.35 390.852 1381.03 390.638 1390.18 392.33ZM1431.4 392.608C1429.09 394.838 1431.82 396.168 1435.9 394.796C1436.9 394.461 1437.71 393.991 1437.71 393.754C1437.71 392.998 1436.22 392.091 1434.41 391.74C1433.06 391.481 1432.35 391.685 1431.4 392.608ZM1454.43 393.448C1453.45 394.593 1453.7 394.775 1457.62 395.762C1461.34 396.7 1462.53 396.107 1461.1 394.021C1460.09 392.553 1455.54 392.162 1454.43 393.448ZM1370.89 394.821C1369.49 395.699 1371.02 396.617 1373.55 396.417C1375.07 396.297 1375.79 395.974 1375.79 395.407C1375.79 394.417 1372.22 393.991 1370.89 394.821ZM1385.09 396.788C1384.68 397.795 1385.31 398.107 1388.17 398.315C1389.85 398.438 1390.19 398.279 1390.19 397.351C1390.19 396.447 1389.75 396.209 1387.81 396.073C1386.06 395.949 1385.34 396.137 1385.09 396.788ZM1442.63 397.416C1441.28 398.712 1441.83 399.549 1444.14 399.741C1446.65 399.948 1449.52 398.023 1448.08 397.094C1446.75 396.233 1443.66 396.416 1442.63 397.416ZM1363.54 398.271C1362.29 399.477 1362.76 400.337 1364.98 400.934C1368.03 401.751 1368.1 401.722 1367.9 399.713C1367.75 398.159 1367.48 397.884 1365.99 397.743C1365.04 397.653 1363.94 397.89 1363.54 398.271ZM1414.31 399.157C1415.39 404.617 1415.4 405.586 1414.4 405.214C1413.86 405.015 1413.21 404.853 1412.95 404.853C1412.69 404.853 1412.6 404.39 1412.75 403.826C1412.91 403.261 1412.62 401.855 1412.12 400.702C1411.62 399.548 1411.21 398.529 1411.21 398.435C1411.21 398.285 1412.56 397.87 1413.62 397.694C1413.83 397.658 1414.14 398.317 1414.31 399.157ZM1377.05 400.976C1374.67 402.784 1375.13 403.256 1379.1 403.073C1382.51 402.917 1382.7 402.834 1382.7 401.519C1382.7 400.329 1382.41 400.106 1380.65 399.963C1379.24 399.85 1378.12 400.165 1377.05 400.976ZM1392.32 400.519C1391.29 401.509 1391.48 402.514 1392.82 403.206C1394.6 404.128 1397.08 402.484 1396.23 400.944C1395.55 399.728 1393.38 399.492 1392.32 400.519ZM1018.04 406.297C995.614 408.417 980.445 412.142 977.684 416.208C975.442 419.508 978.064 431.167 983.447 441.832C991.247 457.287 1002.83 467.422 1016.89 471.079C1020.92 472.128 1023.08 472.284 1034.17 472.321C1044.62 472.357 1047.5 472.192 1050.59 471.377C1067.05 467.037 1080.16 453.23 1087.26 432.757C1088.84 428.212 1089.38 425.622 1089.62 421.411C1089.99 414.862 1089.75 414.475 1083.71 411.759C1078.46 409.403 1070.28 407.906 1055.03 406.518C1041.2 405.258 1029.76 405.19 1018.04 406.297ZM1545.66 408.754C1545.43 410.147 1544.64 411.782 1543.77 412.688C1542.6 413.906 1527.76 419.821 1474.87 440.167C1399.31 469.234 1395.55 470.626 1389.12 471.883C1380.7 473.528 1372.86 471.966 1365.42 467.16C1317.33 436.126 1292.91 420.068 1292.19 419C1291.69 418.271 1291.14 416.603 1290.97 415.292L1290.65 412.91L1292.03 414.104C1294.34 416.111 1357.92 456.304 1365.06 460.272C1371.14 463.649 1375 464.594 1382.41 464.515C1390.49 464.429 1391.61 464.105 1416.98 454.576C1426.96 450.827 1444.58 444.251 1456.15 439.963C1467.71 435.675 1488.97 427.794 1503.39 422.451C1534.1 411.068 1540.83 408.501 1543.65 407.101C1544.79 406.533 1545.8 406.136 1545.89 406.22C1545.98 406.303 1545.88 407.444 1545.66 408.754ZM1412.37 409.295C1418.62 409.988 1423.27 411.154 1427.68 413.137C1440.04 418.683 1437.25 426.28 1421.3 430.506C1417.27 431.574 1415.2 431.731 1404.88 431.756C1393.08 431.785 1393.06 431.783 1387.59 430.004C1372.21 425 1370.26 419.312 1382.01 413.758C1387.47 411.179 1391.67 410.065 1398.54 409.379C1405.44 408.69 1406.84 408.682 1412.37 409.295ZM1060.96 411.212C1072.98 412.572 1085.15 415.774 1085.15 417.575C1085.15 418.171 1080.86 419.951 1075.88 421.421C1067.19 423.988 1049.17 425.963 1034.46 425.962C1013.68 425.962 990.734 423.025 983.504 419.443L981.807 418.602L983.886 417.574C988.837 415.123 1005.02 411.689 1017.47 410.445C1024.96 409.698 1051.74 410.17 1060.96 411.212ZM1402.67 415.182C1401.71 415.836 1401.52 416.25 1401.98 416.775C1402.67 417.584 1407.29 418.326 1408.61 417.839C1409.66 417.45 1409.76 415.895 1408.79 414.966C1407.81 414.014 1404.21 414.141 1402.67 415.182ZM1388.3 417.942C1387.59 418.418 1387.02 419.293 1387.02 419.887C1387.02 420.823 1387.43 420.967 1390.15 420.967C1394.07 420.967 1395.72 419.791 1394.16 418.122C1392.96 416.846 1390.05 416.757 1388.3 417.942ZM1417.55 419.517C1417.55 421.961 1417.63 422.078 1419.19 422.078C1420.11 422.078 1421.3 421.579 1421.89 420.947C1422.92 419.847 1422.92 419.787 1421.84 418.76C1421.22 418.178 1420.01 417.535 1419.14 417.33C1417.58 416.964 1417.55 417.004 1417.55 419.517ZM1084.08 428.163C1081.86 436.628 1076.9 446.009 1070.76 453.375C1065.26 459.969 1059.91 463.67 1052.03 466.346C1047.53 467.873 1047.13 467.91 1035.03 467.914C1020.81 467.92 1016.49 467.239 1009.56 463.891C1004.39 461.399 996.441 454.188 992.342 448.277C987.879 441.841 983.656 432.703 982.318 426.585C981.932 424.819 981.99 424.721 983.266 424.99C1003.81 429.322 1011.16 430.083 1032.44 430.071C1055.18 430.059 1066.85 428.719 1079.39 424.676C1082.4 423.705 1084.95 423.094 1085.05 423.316C1085.16 423.539 1084.72 425.72 1084.08 428.163ZM1218.54 423.228C1237.6 425.785 1252.6 438.105 1248.72 448.018C1247.89 450.141 1245.05 452.95 1241.45 455.202C1231.82 461.232 1218.64 463.223 1201.52 461.235C1196.1 460.605 1186.3 460.133 1173.58 459.891C1155.25 459.542 1153.76 459.437 1150.28 458.256C1141.17 455.17 1134.53 447.98 1134.53 441.216C1134.53 437.84 1135.64 435.985 1139.01 433.752C1144.1 430.373 1154.69 428.199 1166.11 428.193C1173.96 428.189 1179.74 427.519 1190.84 425.331C1204.45 422.644 1210.67 422.172 1218.54 423.228ZM1398.22 423.43C1396.71 424.503 1397.68 425.406 1400.77 425.806C1403.66 426.18 1405.15 425.278 1404.27 423.686C1403.55 422.395 1399.89 422.24 1398.22 423.43ZM1200.28 433.108C1193.5 434.814 1189.01 438.943 1188.41 444.01C1188.14 446.343 1188.28 446.663 1190.38 448.691C1193.9 452.086 1199.09 453.395 1207.85 453.094C1214.32 452.872 1214.88 452.756 1219.01 450.786C1224.55 448.144 1226 446.319 1226 441.987C1226 439.394 1225.75 438.573 1224.56 437.349C1220.16 432.798 1209.15 430.875 1200.28 433.108ZM1260.71 439.896C1267.05 442.859 1271.8 446.603 1271.8 448.633C1271.8 450.29 1268 453.638 1262.72 456.623C1246.87 465.594 1221.95 470.427 1191.6 470.414C1168.17 470.404 1152.7 468.418 1137 463.407C1131.92 461.784 1119.57 456.015 1117.19 454.151C1115.12 452.528 1115.43 451.26 1118.74 447.797C1120.84 445.596 1128.69 440.499 1129.16 441.034C1129.26 441.152 1129.65 442.466 1130.03 443.956C1131.04 447.945 1133.11 451.538 1136.4 455.008C1140.13 458.948 1143.94 461.286 1149.53 463.079C1153.89 464.474 1154.52 464.519 1175.6 464.932C1187.48 465.165 1198.63 465.601 1200.37 465.902C1205.14 466.726 1218.96 466.627 1225.14 465.725C1239 463.703 1249.88 457.523 1252.79 450.018C1254.21 446.35 1254.23 443.259 1252.85 439.4L1251.79 436.44L1253.3 436.788C1254.13 436.979 1257.47 438.378 1260.71 439.896Z" fill="#0D542B"/>
</svg>
