<svg width="1100" height="737" viewBox="0 0 1100 737" fill="none" xmlns="http://www.w3.org/2000/svg">
<path fill-rule="evenodd" clip-rule="evenodd" d="M799.937 0.203676C798.562 0.436676 794.287 1.13268 790.437 1.75168C775.546 4.14368 752.634 13.4027 737.046 23.3297C721.286 33.3647 706.048 47.5997 698.136 59.6797C688.787 73.9537 684.411 92.6887 686.802 108.204C687.475 112.568 688.463 120.189 688.998 125.139C689.533 130.089 690.903 138.864 692.042 144.639C693.429 151.67 694.38 161.912 694.918 175.639C695.614 193.363 696.077 197.329 698.337 204.927C706.232 231.472 725.166 254.493 748.384 265.777C752.755 267.901 757.143 269.639 758.134 269.639C761.819 269.639 759.744 271.195 753.686 272.975C745.391 275.411 730.866 282.701 723.983 287.881C709.259 298.962 699.006 313.822 690.796 335.982C686.973 346.3 674.387 391.117 669.409 412.139L665.62 428.139L663.307 422.911C662.036 420.035 659.148 412.255 656.891 405.622L652.787 393.563L654.362 380.642C656.174 365.778 656.37 351.901 654.896 342.816C653.643 335.095 640.872 305.851 636.893 301.592C632.933 297.353 627.152 297.407 623.526 301.716C622.102 303.408 620.937 305.47 620.937 306.299C620.937 308.099 618.872 307.614 617.873 305.579C616.677 303.144 609.427 265.065 608.35 255.563C607.826 250.938 608.186 248.722 610.463 242.563C615.37 229.293 615.099 210.387 609.761 193.639C601.792 168.634 587.724 158.585 571.953 166.631C561.819 171.801 556.707 183.345 556.671 201.139C556.633 220.361 561.806 233.702 574.825 247.954C579.412 252.977 583.061 257.984 583.829 260.313C584.54 262.466 586.772 272.638 588.79 282.918C592.577 302.214 592.568 302.639 588.393 302.639C584.986 302.639 575.867 307.005 572.555 310.222C565.943 316.643 565.685 318.108 566.373 345.324C566.826 363.243 567.367 370.424 568.461 373.042C569.273 374.985 569.937 377.997 569.937 379.735C569.937 384.03 574.671 391.978 584.343 403.924C588.795 409.422 592.941 414.645 593.558 415.53C594.175 416.415 595.431 424.789 596.35 434.139C600.419 475.538 604.069 501.017 608.343 517.868C617.05 552.189 634.215 571.225 657.563 572.45C668.476 573.023 676.72 570.52 687.687 563.304L695.937 557.876V567.764C695.937 573.202 695.279 582.037 694.474 587.396C692.587 599.962 685.298 657.921 684.404 667.471L683.718 674.803L588.077 674.56C535.475 674.427 492.1 674.139 491.689 673.921C491.278 673.702 492.747 670.865 494.953 667.615C499.457 660.982 508.383 643.219 510.113 637.445C511.135 634.035 512.05 633.268 519.342 629.708C545.883 616.748 560.621 590.042 554.404 566.174C550.828 552.446 543.965 544.883 525.864 534.728C519.579 531.202 508.124 524.564 500.408 519.978C492.692 515.391 485.639 511.639 484.734 511.639C481.501 511.639 472.392 484.921 461.919 444.721C447.598 389.755 435.066 357.116 418.968 332.86C407.314 315.302 387.15 296.686 371.275 288.832L364.036 285.249L371.743 277.194C388.298 259.891 395.875 242.625 395.92 222.101L395.937 214.063L400.195 210.503C402.537 208.546 405.8 204.513 407.445 201.541C410.109 196.731 410.437 195.208 410.437 187.639C410.437 179.611 409.383 175.762 405.223 168.595C405.05 168.296 406.377 167.519 408.172 166.868C412.845 165.174 418.538 160.177 421.444 155.218C426.607 146.407 426.795 133.472 421.924 122.11C420.197 118.079 420.131 117.268 421.375 115.335C424.529 110.433 426.937 100.699 426.937 92.8517C426.937 72.8057 415.996 57.9397 397.818 53.2877C392.722 51.9837 392.637 51.8977 390.921 46.3507C384.879 26.8227 368.027 15.2267 345.937 15.3967C336.031 15.4737 326.721 18.0407 321.267 22.2007C318.876 24.0247 317.246 24.6467 316.436 24.0457C315.764 23.5467 312.564 20.9837 309.326 18.3507C288.954 1.78668 262.987 1.47967 244.724 17.5867C240.602 21.2217 235.685 29.2617 233.631 35.7217C233.216 37.0267 232.19 37.1807 227.782 36.6007C210.254 34.2937 192.91 43.7907 184.885 60.0927C181.884 66.1887 181.449 68.1027 181.102 76.7287L180.711 86.4757L174.243 89.6597C161.12 96.1197 152.137 108.75 149.751 124.096C147.834 136.424 150.488 147.183 158.536 159.718C160.123 162.188 160.081 162.464 157.554 166.283C156.103 168.476 153.972 172.941 152.82 176.205C148.82 187.531 151.735 201.63 160.038 211.112C164.584 216.303 173.836 222.172 179.94 223.736C184.756 224.971 184.947 225.16 186.402 230.166C188.978 239.027 194.447 243.594 202.588 243.68L206.437 243.72L203.062 246.607C198.399 250.595 190.76 254.487 174.906 260.954C137.197 276.334 116.262 288.638 98.0489 306.125C72.4409 330.714 53.7199 364.058 37.1259 414.639C28.0739 442.23 20.6219 470.402 16.8909 491.139C14.2179 505.992 13.0939 536.875 14.8479 547.245C18.5849 569.339 29.5829 586.467 44.3839 593.243C49.9229 595.779 61.3219 598.591 66.1869 598.622C67.6989 598.631 68.9369 599.053 68.9369 599.559C68.9369 600.065 67.7839 605.802 66.3759 612.309C62.2289 631.463 57.9579 654.457 56.7019 664.389L55.5319 673.639H29.3059C6.79687 673.639 2.85687 673.862 1.50787 675.21C-0.37113 677.089 -0.493132 678.809 1.13687 680.439C2.05587 681.358 29.0659 681.639 116.619 681.639H230.901L241.669 692.533C268.52 719.7 305.067 734.415 350.437 736.326C391.23 738.045 429.188 728.405 456.828 709.306C464.119 704.268 478.015 691.41 483.214 684.891L485.805 681.642L792.621 681.391L1099.44 681.139L1099.77 678.774C1099.96 677.473 1099.73 676.028 1099.26 675.562C1098.79 675.097 1083.95 674.587 1066.27 674.428L1034.12 674.139L1031.44 660.639C1027.75 642.028 1020.56 613.975 1017.58 606.617C1015.36 601.108 1015.28 600.45 1016.78 599.925C1044.35 590.247 1059.88 575.238 1065.5 552.844C1071.13 530.394 1068.02 492.232 1055.4 429.139C1045.61 380.134 1034.64 344.241 1023.22 323.822C1013.73 306.856 998.857 291.208 980.937 279.347C968.554 271.151 947.599 260.764 921.937 250.1C898.265 240.263 894.938 238.543 891.085 234.155C884.787 226.982 878.529 211.506 876.419 197.889L875.761 193.639L880.599 193.671C883.26 193.688 886.29 194.348 887.333 195.138C888.376 195.927 892.201 197.579 895.833 198.809C922.724 207.914 955.279 189.402 965.021 159.467C968.512 148.74 968.352 134.14 964.626 123.37C960.342 110.987 954.092 102.514 944.882 96.6037C939.33 93.0407 929.401 89.6387 924.554 89.6387C921.406 89.6387 921.3 89.4847 918.542 80.8887C910.355 55.3697 892.456 31.0957 871.585 17.2087C853.865 5.41768 838.454 0.641679 816.437 0.115679C808.737 -0.0683211 801.312 -0.0283237 799.937 0.203676ZM825.937 8.09868C848.779 11.5817 867.798 21.4057 883.474 37.8197C897.149 52.1377 907.247 69.8317 912.498 88.6737C916.075 101.509 916.975 122.392 914.484 134.737C912.191 146.1 907.879 156.501 901.473 166.123C894.852 176.068 884.117 186.639 880.639 186.639C878.181 186.639 878.186 186.619 881.595 182.896C898.547 164.39 895.772 129.999 876.577 120.707C867.828 116.472 859.419 118.301 848.174 126.885L842.91 130.903L835.674 129.171C823.534 126.266 804.054 116.019 773.526 96.4817C755.147 84.7197 741.937 68.9107 741.937 58.6787C741.937 52.1537 736.955 50.4177 733.119 55.6067C731.912 57.2397 725.859 62.3607 719.668 66.9867C708.002 75.7057 702.101 81.4127 697.393 88.5257C695.881 90.8097 694.441 92.4767 694.193 92.2277C693.945 91.9797 694.216 89.5647 694.796 86.8617C699.042 67.0617 712.726 49.5867 736.356 33.7857C758.769 18.7977 780.225 10.1827 801.223 7.73767C812.118 6.46967 815.582 6.51968 825.937 8.09868ZM291.6 16.9347C298.078 20.2587 308.669 27.6367 311.861 31.0477C315.011 34.4137 317.211 34.3157 321.827 30.6067C336.179 19.0737 360.835 20.6497 374.77 33.9907C379.792 38.7997 382.08 42.8537 384.466 51.1687C386.637 58.7367 387.155 59.3357 392.245 60.1677C410.521 63.1527 422.457 80.4837 418.969 98.9687C418.313 102.445 416.703 107.056 415.391 109.214C410.371 117.472 410.432 116.868 413.909 123.93C421.271 138.885 417.966 153.502 405.822 159.698C403.729 160.766 401.843 161.639 401.631 161.639C401.419 161.639 400.946 156.127 400.579 149.389C399.753 134.219 395.799 110.809 393.847 109.534C393.071 109.027 391.537 108.907 390.437 109.267C389.337 109.626 385.907 110.119 382.814 110.362C370.776 111.308 361.91 104.359 356.055 89.3887C354.492 85.3917 350.879 85.7147 347.494 90.1537C343.528 95.3517 335.902 98.8547 327.324 99.4177C318.489 99.9967 314.948 98.8717 305.295 92.4157C298.832 88.0927 297.458 87.5357 295.481 88.4367C293.371 89.3977 293.148 90.2487 292.767 98.8117C292.413 106.764 291.923 108.925 289.441 113.472C285.888 119.979 282.411 123.022 273.937 127.041C268.379 129.677 266.176 130.148 258.735 130.293C253.948 130.386 249.511 130.784 248.873 131.179C248.116 131.646 247.919 133.502 248.305 136.517C249.494 145.809 244.184 160.301 237.179 166.881L234.912 169.011L229.899 163.386C222.039 154.568 209.788 149.883 201.629 152.576C196.655 154.217 190.292 161.111 187.772 167.59C184.801 175.227 184.579 191.674 187.34 199.607C190.649 209.115 202.023 218.67 211.919 220.252C215.794 220.872 216.041 221.1 215.464 223.529C215.123 224.964 213.682 228.553 212.261 231.504L209.678 236.869L204.761 236.396C198.119 235.758 194.403 232.202 192.922 225.067C191.652 218.95 190.528 217.758 185.276 216.957C175.479 215.463 165.044 207.495 160.883 198.329C158.275 192.583 158.327 182.581 160.996 176.696C162.105 174.253 164.57 170.352 166.474 168.028C168.379 165.704 169.937 162.908 169.937 161.815C169.937 160.722 168.293 157.873 166.284 155.484C164.275 153.094 161.467 148.664 160.044 145.639C157.83 140.93 157.458 138.773 157.458 130.639C157.458 122.393 157.817 120.369 160.181 115.303C165.376 104.173 171.443 98.6647 182.547 94.9977C189.919 92.5637 190.272 91.9997 188.96 84.7647C185.689 66.7297 196.798 49.6897 214.829 45.0837C220.241 43.7007 222.427 43.6267 229.085 44.5997C237.039 45.7627 238.937 45.5127 238.937 43.3017C238.937 40.1797 246.136 27.5217 250.051 23.7607C257.943 16.1767 265.318 13.5967 277.937 14.0077C284.814 14.2317 287.423 14.7907 291.6 16.9347ZM736.999 68.8887C742.055 81.4777 759.282 98.0117 778.437 108.659C781.737 110.493 788.712 114.703 793.937 118.014C805.264 125.192 824.569 134.129 833.799 136.468C839.901 138.015 840.409 138.348 840.092 140.589C839.706 143.32 842.285 145.826 844.577 144.947C845.372 144.642 846.952 142.535 848.087 140.266C850.536 135.373 855.376 130.024 859.137 128.054C863.131 125.961 870.596 126.265 874.501 128.678C878.8 131.336 883.45 138.441 884.932 144.617C887.42 154.99 881.884 172.366 874.152 178.45C869.226 182.325 863.209 185.31 858.562 186.182C854.359 186.97 852.499 189.854 854.156 193.011C854.972 194.567 855.881 194.781 859.537 194.28C861.956 193.949 864.993 193.412 866.286 193.088C868.542 192.521 868.662 192.775 869.28 199.42C870.531 212.881 880.47 236.387 887.532 242.588L890.952 245.591L887.717 262.365L884.483 279.139L876.925 286.639C862.343 301.108 840.252 310.684 821.599 310.622C814.702 310.598 804.109 308.278 798.998 305.67C793.333 302.78 786.913 296.812 785.284 292.921C783.894 289.601 783.508 278.863 784.552 272.552C785.122 269.111 785.436 268.873 792.291 266.677C801.219 263.819 807.429 260.711 816.673 254.477C835.578 241.727 849.671 223.027 841.275 221.831C839.675 221.603 838.332 222.657 836.112 225.885C832.121 231.685 821.764 241.278 813.843 246.51C800.283 255.467 780.124 263.639 771.588 263.639C756.184 263.639 740.369 254.892 725.883 238.361C707.822 217.751 703.6 205.847 701.875 170.681C701.348 159.933 700.687 148.889 700.406 146.139C699.906 141.248 699.984 141.068 704.007 137.903C706.269 136.123 709.859 134.198 711.986 133.626C716.324 132.458 717.223 131.547 716.33 129.221C714.756 125.118 705.75 126.696 701.429 131.831C700.013 133.514 698.63 134.665 698.354 134.389C698.079 134.114 697.76 127.42 697.645 119.514C697.439 105.311 697.474 105.061 700.534 98.6387C704.642 90.0177 710.992 83.1927 723.832 73.5957C729.665 69.2367 734.72 65.6627 735.066 65.6537C735.411 65.6457 736.282 67.1017 736.999 68.8887ZM936.561 101.246C944.222 104.863 950.425 110.842 953.879 117.942C964.486 139.743 960.892 161.684 943.937 178.639C931.48 191.096 915.119 196.193 900.276 192.241C892.361 190.134 892.315 189.995 897.652 184.295C908.613 172.588 917.158 156.94 920.969 141.595C923.46 131.57 924.517 113.867 923.198 104.299L922.255 97.4597L926.846 98.1437C929.371 98.5197 933.743 99.9157 936.561 101.246ZM353.386 102.174C355.98 106.992 363.104 113.371 368.761 115.943C372.117 117.469 375.696 118.117 381.437 118.239C387.3 118.364 389.506 118.774 389.695 119.774C390.452 123.77 392.723 140.17 392.546 140.355C392.432 140.473 390.147 139.461 387.468 138.105C380.028 134.338 367.131 135.084 365.484 139.376C364.515 141.903 365.899 142.426 374.515 142.794C381.558 143.095 383.07 143.503 386.314 145.977C388.36 147.538 390.651 148.579 391.403 148.29C392.156 148.002 393.034 148.449 393.354 149.284C394.019 151.017 394.153 158.639 393.518 158.639C393.287 158.639 390.3 157.922 386.881 157.046C379.394 155.128 373.53 155.748 366.276 159.225C360.606 161.943 354.33 168.214 352.753 172.737C351.853 175.318 351.277 175.639 347.547 175.639C343.456 175.639 343.324 175.533 342.214 171.385C338.782 158.552 324.871 149.684 310.113 150.921C299.882 151.779 292.368 155.017 285.977 161.322L280.517 166.709L271.977 166.142C253.589 164.921 248.844 164.433 249.177 163.799C253.259 156.03 255.868 147.626 255.913 142.104C255.937 139.069 255.939 139.068 263.92 137.999C283.779 135.341 298.139 122.033 300.611 103.999C300.94 101.601 301.382 99.6387 301.594 99.6387C301.806 99.6387 303.727 100.795 305.861 102.208C317.116 109.655 334.076 109.442 345.937 101.703C348.412 100.089 350.672 98.7377 350.96 98.7027C351.247 98.6677 352.339 100.23 353.386 102.174ZM750.881 125.483C746.94 128.674 748.883 130.639 755.978 130.639C760.133 130.639 765.081 131.634 771.482 133.756C783.391 137.705 786.723 136.878 781.687 131.224C778.802 127.985 765.472 123.639 758.42 123.639C754.797 123.639 752.449 124.213 750.881 125.483ZM307.538 133.233C297.976 135.547 290.937 141.051 290.937 146.215C290.937 150.046 292.637 149.923 297.974 145.704C304.466 140.572 309.32 139.277 319.687 139.912C327.841 140.412 327.937 140.39 327.937 138.049C327.937 136.296 326.907 135.154 323.977 133.659C319.41 131.33 315.792 131.236 307.538 133.233ZM860.988 141.349C857.991 142.883 854.642 145.376 853.544 146.887C851.55 149.634 851.55 149.636 853.597 155.795C855.205 160.632 855.42 162.548 854.602 164.717C852.691 169.779 857.08 172.496 860.937 168.639C863.228 166.348 863.549 161.413 861.788 155.537C860.379 150.832 861.258 149.524 868.187 146.012C872.08 144.04 873 143.097 872.75 141.34C872.275 137.999 867.522 138.003 860.988 141.349ZM757.809 155.293C755.499 158.077 756.077 165.095 758.861 168.058C763.387 172.876 767.937 170.442 767.937 163.202C767.937 155.74 761.567 150.765 757.809 155.293ZM710.137 155.839C708.085 157.891 708.632 167.334 710.937 169.639C713.61 172.312 715.55 172.159 717.542 169.119C719.409 166.27 719.056 158.692 716.937 156.14C715.442 154.337 711.8 154.176 710.137 155.839ZM727.142 158.892C725.481 160.893 717.937 191.067 717.937 195.71C717.937 204.01 722.572 208.252 731.346 207.983C741.52 207.671 748.307 203.581 744.675 199.949C743.159 198.433 742.394 198.369 738.428 199.43C735.942 200.095 732.163 200.639 730.03 200.639C723.663 200.639 723.451 197.715 728.497 179.558C732.305 165.857 732.767 158.408 729.845 157.855C728.969 157.689 727.753 158.156 727.142 158.892ZM323.277 161.557C339.104 169.234 339.251 193.368 323.53 203.087C319.687 205.463 317.264 206.168 311.898 206.471C300.414 207.12 293.605 203.416 289.304 194.18C286.684 188.553 286.172 179.947 288.053 173.139C291.371 161.129 309.86 155.049 323.277 161.557ZM213.877 161.118C220.077 163.305 223.739 166.291 227.571 172.28C231.618 178.608 233.699 179.043 239.573 174.788C243.495 171.947 243.543 171.94 253.473 172.739C258.953 173.181 267.037 173.564 271.437 173.592L279.437 173.641L279.448 183.39C279.456 191.13 279.886 194.068 281.536 197.65C284.301 203.654 289.223 208.409 295.931 211.556C303.559 215.134 316.96 215.265 324.437 211.835C333.828 207.525 340.675 198.621 343.026 187.661C343.935 183.421 344.457 182.639 346.375 182.639C348.442 182.639 348.702 183.224 349.251 189.097C349.968 196.776 352.684 202.625 358.177 208.315L362.208 212.491L360.3 215.815C359.205 217.722 356.499 220.098 353.952 221.389C349.371 223.711 341.547 224.435 340.437 222.639C339.25 220.719 335.901 221.625 334.736 224.181C333.746 226.353 333.883 227.03 335.674 228.82C338.341 231.487 346.325 232.35 352.454 230.634C357.712 229.162 365.118 223.031 366.933 218.648C367.981 216.118 368.567 215.722 370.319 216.363C371.484 216.79 376.149 217.111 380.687 217.078L388.937 217.016V220.74C388.937 226.468 386.394 238.411 383.593 245.836C376.932 263.493 360.613 280.347 343.022 287.739C318.994 297.834 292.998 294.39 274.437 278.653C267.779 273.008 264.635 272.432 264.133 276.764C263.891 278.85 264.861 280.292 268.854 283.785C275.432 289.54 283.157 294.165 290.501 296.746C297.342 299.15 309.561 301.639 314.525 301.639C316.402 301.639 317.937 302.003 317.937 302.448C317.937 304.781 310.25 315.759 305.681 319.951C288.127 336.059 261.432 336.42 235.02 320.908C222.587 313.606 208.082 297.816 201.083 283.965C198.714 279.276 193.937 265.528 193.937 263.397C193.937 262.633 195.818 260.95 198.117 259.658C204.039 256.33 209.267 251.356 213.421 245.098C217.292 239.265 226.937 218.241 226.937 215.634C226.937 212.544 224.859 211.722 218.538 212.31C211.402 212.975 207.199 211.564 201.555 206.609C194.993 200.847 193.448 196.662 193.442 184.639C193.437 175.133 193.705 173.594 196.265 168.38C200.402 159.954 205.095 158.019 213.877 161.118ZM388.292 166.014C393.173 168.053 399.007 173.585 401.072 178.13C409.556 196.805 388.715 217.108 370.472 207.943C359.316 202.339 353.94 188.502 358.893 178.139C361.581 172.515 363.767 170.135 368.937 167.21C374.137 164.267 382.826 163.73 388.292 166.014ZM588.571 173.558C592.741 176.1 596.283 180.896 599.762 188.708C604.992 200.451 606.388 207.078 606.385 220.139C606.382 231.405 606.178 232.651 603.04 240.511L599.697 248.884L601.399 260.011C602.334 266.132 604.413 277.834 606.018 286.018C607.624 294.201 608.937 301.294 608.937 301.78C608.937 302.462 601.231 301.95 600.221 301.2C600.102 301.112 598.178 292.211 595.945 281.421C590.308 254.179 589.37 251.768 581.069 243.205C570.2 231.991 565.113 220.181 564.226 204.102C563.807 196.514 564.063 192.716 565.278 188.539C569.304 174.688 579.583 168.077 588.571 173.558ZM205.493 173.939C203.648 175.321 203.635 175.528 205.225 177.956C206.442 179.814 207.937 180.602 210.67 180.828L214.437 181.139L215.451 187.527C216.595 194.73 219.152 197.709 222.197 195.386C223.571 194.338 223.737 192.811 223.237 185.817C222.464 175.011 221.25 173.426 213.336 172.885C209.2 172.602 206.856 172.917 205.493 173.939ZM312.968 178.106C309.888 181.385 308.966 189.525 311.399 191.958C313.693 194.252 315.181 194.073 317.906 191.172C321.113 187.759 322.036 178.916 319.388 176.98C316.797 175.085 315.61 175.293 312.968 178.106ZM372.475 181.941C367.748 189.155 370.263 198.37 376.324 196.044C379.626 194.777 382.445 186.105 380.886 182.006C379.649 178.752 374.59 178.713 372.475 181.941ZM769.604 200.306C767.784 202.125 769.067 206.596 772.009 208.691L775.082 210.878L772.259 213.852C766.726 219.681 760.545 221.981 749.161 222.447C740.678 222.794 738.722 223.173 737.95 224.615C737.317 225.798 737.443 226.949 738.341 228.177C741.13 231.991 758.207 231.054 766.982 226.605C770.867 224.635 778.937 216.422 778.937 214.438C778.937 213.754 780.262 214.644 781.881 216.416C785.131 219.974 788.382 220.582 789.767 217.889C791.537 214.446 788.042 209.894 778.742 203.534C773.188 199.735 770.961 198.949 769.604 200.306ZM294.14 227.149C286.102 230.642 276.937 239.569 276.937 243.908C276.937 244.821 277.829 246.046 278.918 246.629C280.611 247.535 281.79 246.871 287.019 242.063C290.385 238.969 295.231 235.519 297.788 234.396C304.12 231.616 305.152 229.996 302.366 227.21C300.447 225.292 298.45 225.277 294.14 227.149ZM299.937 241.407C299.937 251.413 316.833 260.5 333.417 259.412C342.415 258.822 350.937 254.849 350.937 251.245C350.937 246.686 348.463 246.046 342.503 249.061C331.72 254.517 316.557 251.923 307.946 243.149C302.775 237.88 299.937 237.262 299.937 241.407ZM907.967 252.705C913.123 254.942 917.644 256.958 918.013 257.186C918.382 257.414 918.065 260.197 917.31 263.37C914.577 274.849 908.977 303.525 906.027 321.139C894.571 389.556 894.433 429.417 905.538 462.639C911.258 479.749 921.359 496.281 935.252 511.273C938.379 514.646 940.937 517.661 940.937 517.973C940.937 518.998 919.555 525.475 909.212 527.583C895.478 530.382 879.793 531.264 871.787 529.689C864.145 528.186 857.165 525.088 838.018 514.702C829.605 510.138 820.695 506.088 816.955 505.128C808.477 502.952 795.264 500.642 791.279 500.64L788.12 500.639L787.779 485.791C787.542 475.509 787.037 470.461 786.136 469.377C781.176 463.408 764.014 460.261 739.937 460.903C723.249 461.349 714.452 462.731 706.531 466.15C704.706 466.938 704.655 466.572 705.334 457.556C706.693 439.49 710.941 424.046 725.06 385.825C734.212 361.051 743.485 338.084 758.447 303.139C771.943 271.618 771.404 272.639 774.543 272.639H777.097L776.432 282.889C775.835 292.105 774.924 295.711 767.406 318.639C759.214 343.623 755.709 355.958 754.427 364.316C753.866 367.971 754.077 368.678 756.111 369.961C759.422 372.05 778.272 376.289 792.937 378.243C808.282 380.287 866.544 381.455 869.671 379.781C871.89 378.594 872.992 373.949 880.028 336.139C882.279 324.039 887.23 299.63 891.029 281.897C894.829 264.164 897.937 249.426 897.937 249.147C897.937 248.361 898.015 248.389 907.967 252.705ZM936.135 264.726C951.62 271.54 970.809 281.641 980.189 287.915C1014.03 310.552 1031.12 345.461 1046.88 424.139C1056.56 472.448 1060.36 500.958 1060.4 525.639C1060.44 545.077 1059.37 551.087 1053.82 562.467C1046.23 578.029 1028.19 589.564 1000 596.865C989.781 599.513 986.258 599.922 969.687 600.381C951.683 600.881 949.399 600.577 951.95 598.026C953.733 596.243 955.902 583.415 955.92 574.549C955.949 559.964 950.934 544.645 942.219 532.703L938.252 527.266L951.345 521.891C981.456 509.528 982.281 509.286 994.863 509.072C1004.47 508.908 1006.49 508.597 1007.57 507.12C1009.99 503.817 1007.69 501.996 1000.23 501.303C992.029 500.541 983.116 501.823 972.624 505.275C968.326 506.689 964.662 507.687 964.48 507.492C964.196 507.188 956.716 473.622 947.354 430.639C945.857 423.764 943.677 411.431 942.51 403.232C940.89 391.861 939.982 388.07 938.681 387.249C937.384 386.431 936.59 386.557 935.373 387.775C932.394 390.754 935.986 413.93 947.443 465.639C951.525 484.064 955.551 501.389 956.39 504.139C957.229 506.889 957.92 509.467 957.926 509.869C957.932 510.27 956.084 511.544 953.818 512.7L949.699 514.801L946.185 511.47C939.61 505.239 927.451 489.9 922.83 482.007C903.692 449.321 900.259 409.75 910.522 340.139C915.354 307.361 924.704 260.639 926.431 260.639C926.66 260.639 931.027 262.478 936.135 264.726ZM188.278 269.112C190.074 282.213 200.293 300.226 213.321 313.256C230.917 330.853 250.684 339.586 273.005 339.622C290.126 339.65 301.931 334.959 312.937 323.756C319.123 317.458 325.937 306.195 325.937 302.266C325.937 301.216 326.786 300.639 328.332 300.639C331.904 300.639 343.652 296.805 350.201 293.503L355.966 290.596L361.201 292.821C386.961 303.771 408.532 326.011 424.828 358.423C436.049 380.74 443.55 403.198 456.967 454.639C461.968 473.816 470.207 500.972 473.374 508.718C473.867 509.923 473.002 510.602 469.728 511.581C454.95 516 442.194 528.317 437.378 542.818L435.699 547.871L430.568 547.323C427.746 547.021 417.674 546.204 408.187 545.507C398.7 544.81 390.937 543.863 390.937 543.403C390.937 542.942 393.603 534.37 396.862 524.352C405.787 496.914 406.449 492.966 406.37 467.639C406.311 448.499 406.005 444.602 403.581 432.139C400.399 415.779 391.281 378.151 389.852 375.479C388.63 373.197 385.093 373.07 384.246 375.277C383.9 376.179 384.396 380.116 385.349 384.027C396.489 429.755 399.273 446.581 399.353 468.639C399.427 489.451 398.319 495.943 390.525 520.345C387.576 529.582 384.866 538.533 384.503 540.238L383.844 543.337L351.641 543.962C333.929 544.306 314.948 545.047 309.46 545.609C300.467 546.53 299.314 546.458 297.763 544.885C296.816 543.925 287.747 532.118 277.608 518.649L259.175 494.158L261.806 493.026C263.253 492.403 265.562 490.675 266.937 489.186C270.387 485.449 270.417 476.192 267.001 469.639C258.865 454.03 245.444 439.969 232.611 433.61C226.621 430.642 222.541 429.323 218.107 428.921C214.713 428.613 211.937 427.979 211.937 427.511C211.937 424.467 176.599 375.984 172.248 373.059C168.331 370.425 160.931 370.511 157.26 373.233C153.584 375.96 149.974 382.342 149.953 386.154C149.944 387.812 150.886 390.962 152.047 393.154C155.351 399.397 168.671 419.48 174.145 426.473C176.872 429.957 178.953 432.916 178.77 433.05C178.587 433.184 176.896 433.909 175.012 434.66C169.545 436.841 157.397 446.428 144.374 458.837C132.706 469.954 132.132 470.355 126.874 471.031C110.165 473.179 62.6429 486.149 58.3119 489.742C56.5119 491.236 56.5589 494.08 58.4079 495.615C59.5889 496.595 61.2169 496.326 66.6579 494.253C76.8969 490.351 88.8709 486.877 104.927 483.149C112.896 481.299 119.487 479.865 119.574 479.962C119.66 480.059 118.848 483.514 117.768 487.639C114.882 498.666 115.552 517.219 119.208 527.52C122.156 535.825 127.065 543.723 133.667 550.782L138.131 555.554L132.795 561.196C103.366 592.312 55.1339 600.197 35.2639 577.139C23.3309 563.292 18.3839 535.854 22.3729 505.639C28.0109 462.927 46.8489 400.966 65.2969 364.45C85.5819 324.299 107.354 301.901 143.937 283.552C154.354 278.326 184.951 264.956 187.051 264.711C187.389 264.671 187.941 266.652 188.278 269.112ZM761.003 279.889C760.516 281.127 756.892 289.339 752.949 298.139C744.762 316.41 728.848 354.797 723.93 368.139C722.105 373.089 720.204 377.589 719.705 378.139C719.162 378.739 719.075 375.325 719.489 369.612C720.093 361.262 719.964 359.906 718.443 358.644C716.904 357.367 716.505 357.454 714.916 359.417C712.739 362.105 711.411 376.732 712.198 389.349C712.679 397.053 712.447 398.507 709.354 407.161C702.354 426.745 697.549 450.886 698.108 463.661C698.396 470.251 698.156 471.54 696.171 474.067C693.918 476.933 693.908 477.096 694.437 502.045C694.73 515.846 695.186 531.479 695.451 536.783L695.933 546.427L689.958 551.959C686.671 555.002 680.944 558.987 677.231 560.815C670.944 563.91 669.789 564.139 660.458 564.139C651.882 564.139 649.716 563.788 645.437 561.707C638.15 558.164 629.159 548.567 624.267 539.113C615.016 521.232 611.015 502.174 604.958 447.139C603.263 431.739 601.638 417.944 601.348 416.483C601.057 415.022 596.848 408.626 591.994 402.269C587.141 395.912 581.948 388.628 580.456 386.081L577.743 381.451L580.59 378.452C582.156 376.802 585.687 374.269 588.437 372.822C599.956 366.762 620.729 371.762 627.601 382.248C629.286 384.82 629.269 384.952 627.026 386.768C623.78 389.396 620.298 389.077 613.937 385.569C606.935 381.707 600.901 380.777 597.463 383.03C592.929 386.001 595.295 389.639 601.76 389.639C606.9 389.639 608.454 392.129 611.434 405.139C612.945 411.739 614.854 418.835 615.676 420.908C618.983 429.253 626.623 431.153 632.649 425.127C636.087 421.689 636.153 421.471 635.752 414.877C635.472 410.271 634.433 406.137 632.469 401.813L629.595 395.486L632.298 393.313C635.785 390.508 636.731 385.082 634.643 379.863C633.432 376.836 633.314 375.006 634.096 371.343C634.864 367.742 634.737 365.464 633.541 361.35C632.338 357.209 632.228 355.169 633.05 352.192C633.65 350.019 633.778 346.799 633.347 344.75C632.928 342.764 632.527 337.089 632.456 332.139C632.345 324.477 631.925 322.363 629.631 317.922C626.438 311.74 626.346 310.591 628.794 307.567L630.651 305.273L632.325 307.828C633.246 309.233 636.946 316.853 640.548 324.761C648.795 342.867 650.033 350.166 648.031 368.888C645.288 394.537 645.339 396.01 649.331 406.974C657.052 428.177 675.866 468.675 679.331 471.551C681.171 473.078 683.718 472.374 684.592 470.096C684.955 469.151 682.071 462.437 677.466 453.503C671.774 442.461 669.856 437.791 670.204 435.819C670.747 432.751 684.116 383.88 689.995 363.477C701.088 324.975 710.91 307.178 728.193 294.265C735.731 288.632 746.854 282.633 755.437 279.57C761.949 277.245 762.04 277.251 761.003 279.889ZM880.645 296.889C880.357 298.127 876.724 315.507 872.572 335.513C868.42 355.518 864.788 372.122 864.5 372.41C863.324 373.585 829.474 373.809 816.437 372.727C796.443 371.068 764.485 365.979 762.107 364.076C761.525 363.61 766.935 344.733 773.531 324.211C777.054 313.25 779.937 303.687 779.937 302.961C779.937 300.894 780.896 301.346 785.491 305.582C794.773 314.138 806.857 318.16 822.937 318.047C840.203 317.924 858.653 311.292 873.937 299.713C877.512 297.004 880.602 294.755 880.804 294.714C881.005 294.673 880.934 295.651 880.645 296.889ZM611.437 311.564C617.28 314.127 626.482 324.751 625.77 328.11C625.493 329.414 624.798 329.244 621.662 327.106C610.326 319.378 593.765 318.787 579.224 325.592L572.937 328.534V325.973C572.937 313.157 595.673 304.649 611.437 311.564ZM611.142 330.193C619.747 333.125 626.937 341.283 626.937 348.113V350.652L622.865 347.702C611.278 339.308 590.954 338.862 577.215 346.7C573.369 348.894 572.468 347.975 573.419 342.824C574.506 336.936 579.163 332.971 588.437 330.038C594.053 328.262 605.708 328.342 611.142 330.193ZM610.114 349.672C614.662 350.935 622.651 356.263 625.188 359.726C627.074 362.3 628.838 370.639 627.497 370.639C627.11 370.639 624.913 369.549 622.615 368.218C611.556 361.808 596.563 360.917 585.444 366.007C582.17 367.506 578.743 369.409 577.83 370.236C576.322 371.6 576.064 371.442 575.052 368.54C571.927 359.575 575.975 353.979 588.437 350.038C593.339 348.488 605.134 348.288 610.114 349.672ZM170.128 381.389C172.635 384.077 186.495 402.667 198.646 419.639L204.731 428.139L195.584 429.678C187.804 430.988 186.288 431.011 185.437 429.831C184.887 429.069 178.475 419.467 171.187 408.493C162.58 395.534 157.937 387.618 157.937 385.905C157.937 382.443 161.595 378.639 164.924 378.639C166.514 378.639 168.582 379.732 170.128 381.389ZM623.841 402.638C627.553 408.67 629.392 414.69 628.549 418.048C627.783 421.103 624.508 421.574 623.045 418.841C621.776 416.469 617.937 401.374 617.937 398.754C617.937 395.527 620.506 397.218 623.841 402.638ZM222.915 437.131C234.007 441.045 246.905 452.456 256.078 466.472C261.217 474.323 262.765 479.376 261.307 483.541C259.644 488.29 256.354 487.499 250.613 480.971C238.02 466.653 230.533 460 222.923 456.367C215.163 452.663 204.21 449.936 201.407 451.012C200.434 451.386 199.923 452.51 200.117 453.853C200.383 455.701 201.735 456.437 208.117 458.206C224.688 462.801 234.717 470.35 240.877 482.866C243.69 488.579 244.122 490.391 243.748 494.899C243.297 500.341 240.309 507.762 238.324 508.372C237.712 508.56 236.96 507.171 236.654 505.285C235.809 500.077 231.364 491.403 227.036 486.515C221.968 480.792 214.25 476.282 204.825 473.537C196.71 471.173 193.937 471.415 193.937 474.485C193.937 476.941 195.589 478.196 199.897 479.015C206.449 480.261 217.791 486.683 222.305 491.703C227.511 497.494 230.421 505.65 229.668 512.338C229.084 517.515 226.775 520.321 222.375 521.201C219.38 521.8 219.297 521.709 218.096 516.508C215.439 504.997 208.524 498.312 195.833 494.983C188.421 493.039 185.642 493.567 186.117 496.829C186.366 498.538 187.665 499.395 191.937 500.671C204.451 504.406 209.786 509.121 210.703 517.255C211.861 527.528 202.978 528.575 193.991 519.224C192.095 517.252 189.69 515.639 188.646 515.639C187.574 515.639 183.721 518.88 179.794 523.085C171.016 532.484 163.366 536.639 154.838 536.639C149.532 536.639 148.68 536.967 144.437 540.639C141.895 542.839 139.415 544.639 138.927 544.639C137.214 544.639 128.917 531.827 126.22 525.016C123.737 518.747 123.493 516.946 123.467 504.639C123.439 492.027 123.615 490.76 126.138 485.374C128.459 480.422 129.485 479.333 133.421 477.646C136.436 476.354 142.177 471.638 150.219 463.85C169.403 445.272 177.086 440.32 191.437 437.283C200.865 435.288 217.465 435.208 222.915 437.131ZM761.943 469.027C766.621 469.787 772.189 471.135 774.315 472.024C777.591 473.392 777.99 473.87 776.928 475.15C774.009 478.667 753.546 482.639 738.344 482.639C726.219 482.639 705.937 478.235 705.937 475.602C705.937 474.251 716.917 470.513 724.937 469.134C735.058 467.393 751.583 467.346 761.943 469.027ZM705.737 484.017C718.728 490.647 754.315 491.204 772.708 485.066C776.707 483.731 780.082 482.641 780.208 482.643C780.334 482.646 780.595 490.476 780.788 500.044C781.115 516.284 781.016 517.475 779.288 517.963C778.27 518.25 771.012 519.894 763.159 521.616C746.9 525.182 742.29 526.656 736.157 530.25C730.52 533.554 727.946 537.827 727.941 543.889C727.939 546.501 727.48 548.639 726.922 548.639C725.339 548.639 721.945 554.849 721.941 557.754C721.939 559.192 722.921 561.621 724.124 563.15C725.396 564.766 726.623 568.227 727.056 571.416C727.949 578.002 731.69 583.152 737.737 586.122C740.953 587.702 741.854 588.706 741.89 590.754C742.024 598.241 756.605 605.751 775.687 608.163L780.937 608.827L780.879 618.983C780.791 634.587 780.208 636.675 775.163 639.458C759.123 648.306 711.855 646.979 707.262 637.551C706.466 635.917 705.585 616.905 704.531 578.639C703.675 547.564 702.684 513.251 702.328 502.389C701.973 491.527 701.987 482.639 702.359 482.639C702.732 482.639 704.251 483.259 705.737 484.017ZM276.437 529.866C287.987 545.216 299.794 561.189 302.674 565.361C305.554 569.532 308.126 573.162 308.39 573.425C308.654 573.689 312.772 574.53 317.542 575.294C335.185 578.119 348.537 584.282 358.415 594.161C363.956 599.702 370.32 609.323 371.465 613.889L372.154 616.639L360.295 616.624C340.374 616.6 294.474 613.51 293.062 612.098C291.635 610.67 291.898 597.387 293.468 591.623C297.144 578.123 298.534 581.327 275.679 550.602C264.444 535.497 253.466 520.521 251.284 517.32L247.315 511.502L249.376 504L251.437 496.498L253.437 499.227C254.537 500.728 264.887 514.515 276.437 529.866ZM805.122 510.212C812.381 511.628 819.697 513.479 821.379 514.326C823.061 515.173 832.087 520.072 841.437 525.214C861.395 536.189 866.158 537.603 883.245 537.624C896.665 537.641 905.113 536.556 919.426 532.979L929.415 530.483L934.18 535.811C945.055 547.971 950.167 565.058 947.998 581.995C947.278 587.614 945.942 592.67 944.343 595.825L941.822 600.799L934.63 600.198C930.674 599.868 914.787 598.482 899.326 597.118C865.438 594.13 862.485 594.096 854.045 596.598C840.679 600.562 830.272 601.777 809.937 601.75C780.822 601.712 764.938 599.454 754.687 593.896C749.456 591.06 748.386 589.17 752.687 590.364C754.2 590.784 762.187 591.075 770.437 591.01C787.319 590.879 799.122 588.898 802.368 585.652C804.214 583.806 804.245 583.519 802.758 582.031C801.336 580.609 800.682 580.579 797.29 581.778C794.486 582.768 787.445 583.139 771.437 583.139C750.536 583.139 749.18 583.023 744.285 580.808C739.161 578.49 735.726 575.546 734.694 572.59C734.218 571.224 735.908 571.09 748.947 571.461C764.303 571.897 785.492 570.463 794.828 568.356C800.654 567.041 803.107 564.754 801.181 562.433C800.219 561.274 798.272 561.263 788.739 562.368C781.931 563.157 769.215 563.57 756.757 563.408C737.513 563.158 735.882 562.993 733.257 561.031C729.737 558.4 729.706 556.9 733.123 554.349C735.335 552.698 738.161 552.204 749.123 551.552C756.446 551.117 763.787 550.521 765.437 550.228C767.087 549.936 773.162 548.977 778.937 548.098C791.77 546.145 798.555 544.078 799.404 541.864C800.27 539.607 797.366 537.618 794.064 538.207C776.797 541.286 758.269 543.785 748.926 544.294C738.977 544.836 737.231 544.698 736.054 543.28C731.931 538.312 744.529 533.356 783.437 524.644C801.424 520.616 804.496 519.26 803.213 515.916C802.742 514.69 801.501 514.504 796.949 514.98C793.826 515.306 790.521 515.861 789.604 516.213C788.197 516.753 787.937 516.136 787.937 512.246C787.937 506.648 787.254 506.728 805.122 510.212ZM253.962 533.689C261.226 543.879 265.259 550.377 264.562 550.765C263.943 551.109 261.187 551.699 258.437 552.077C234.113 555.42 206.646 567.078 200.222 576.785C197.76 580.505 197.668 581.133 198.26 590.152C198.96 600.799 202.555 619.658 206.456 633.139C209.364 643.186 215.49 656.692 221.774 666.907C224.064 670.629 225.937 673.779 225.937 673.907C225.937 674.034 189.262 674.139 144.437 674.139C99.6119 674.139 62.9369 673.996 62.9369 673.822C62.9369 671.645 67.8999 642.634 70.9239 627.139C73.0699 616.139 75.1269 605.001 75.4949 602.389C76.0039 598.777 76.5849 597.639 77.9219 597.639C78.8889 597.639 84.0259 596.537 89.3359 595.19C113.966 588.942 135.668 573.433 149.624 552.107C154.152 545.186 154.597 544.809 158.909 544.228C166.144 543.253 173.609 539.143 180.862 532.141C184.566 528.565 188.068 525.639 188.645 525.639C189.221 525.639 190.31 526.385 191.065 527.297C195.003 532.057 207.245 534.213 211.883 530.964C213.325 529.954 216.487 529.226 219.855 529.128C226.643 528.93 231.223 526.703 234.199 522.152C236.38 518.815 239.524 516.55 241.336 517.01C241.831 517.136 247.512 524.641 253.962 533.689ZM482.64 518.853C484.178 519.521 491.031 523.387 497.867 527.445C504.704 531.503 514.154 536.889 518.867 539.413C537.006 549.128 541.844 553.625 546.041 564.67C548.525 571.207 548.758 581.308 546.597 588.724C544.602 595.568 539.043 604.877 533.626 610.444C528.83 615.374 516.246 624.281 515.348 623.383C515.017 623.052 515.05 621.4 515.421 619.711C515.888 617.584 516.686 616.639 518.014 616.639C521.158 616.639 527.71 609.851 530.906 603.281C536.486 591.81 538.483 577.745 535.868 568.329C534.941 564.991 534.477 564.557 532.126 564.829L529.442 565.139L529.369 576.639C529.305 586.601 528.941 589.048 526.642 594.94C524.148 601.331 518.396 610.639 516.941 610.639C516.221 610.639 516.348 609.286 518.574 593.298L520.083 582.456L517.416 577.186C514.985 572.381 514.78 571.085 515.093 562.527C515.419 553.641 515.325 553.123 513.349 552.841C509.999 552.362 508.473 555.263 508.454 562.147L508.437 568.388L498.788 563.513C493.481 560.833 488.616 558.639 487.976 558.639C486.698 558.639 487.491 550.495 489.065 547.455C490.337 544.998 490.143 543.932 488.296 543.223C485.5 542.15 482.014 545.305 481.34 549.518C480.348 555.723 480.083 555.871 472.862 554.243C469.328 553.446 461.487 552.021 455.437 551.076C449.387 550.131 444.034 548.996 443.542 548.554C442.043 547.206 447.785 536.918 453.454 530.794C462.803 520.696 475.2 515.624 482.64 518.853ZM420.693 554.053C466.847 558.851 494.849 566.337 506.703 577.047C511.629 581.497 512.251 583.594 509.825 587.582C506.471 593.098 497.236 597.891 480.445 602.831L473.15 604.977L468.793 601.243C463.493 596.7 454.279 592.233 447.138 590.744C439.358 589.122 432.101 589.382 419.586 591.734L408.437 593.829L403.437 591.823C400.687 590.719 395.661 588.648 392.269 587.221C384.524 583.962 375.83 583.006 367.978 584.551L361.937 585.74L355.557 581.188C345.252 573.834 328.734 567.639 319.431 567.639C315.591 567.639 315.121 567.286 310.197 560.706L305.009 553.774L310.223 553.195C320.879 552.013 327.332 551.895 365.937 552.178C393.001 552.376 410.24 552.966 420.693 554.053ZM278.999 569.288C283.515 575.695 287.256 581.432 287.314 582.038C287.371 582.644 286.823 585.47 286.095 588.319L284.771 593.498L276.104 592.961C265.807 592.323 259.206 594.334 250.76 600.68C244.987 605.018 245.714 605.009 232.437 600.888C216.319 595.884 206.937 589.722 206.937 584.139C206.937 577.173 220.81 568.868 241.437 563.484C247.635 561.867 265.465 558.283 270.113 557.721C270.485 557.676 274.484 562.881 278.999 569.288ZM392.937 596.418C405.813 601.998 408.615 602.32 420.97 599.632C435.416 596.489 444.997 597.058 454.224 601.605C460.721 604.807 462.653 606.256 461.699 607.211C460.984 607.925 430.392 612.438 417.747 613.694C411.317 614.332 400.159 614.919 392.951 614.997L379.846 615.139L377.057 608.559C375.522 604.94 372.844 599.91 371.104 597.382C367.382 591.972 367.812 591.609 377.437 592.035C381.851 592.231 385.948 593.389 392.937 596.418ZM224.937 606.393C242.371 612.508 266.134 617.16 298.676 620.829C316.023 622.785 323.63 623.059 360.937 623.072C394.923 623.084 406.542 622.736 418.937 621.337C462.466 616.421 487.039 610.566 509.187 599.836C511.75 598.594 508.708 616.603 503.815 631.639C497.226 651.887 480.535 678.463 465.895 692.017C439.263 716.674 404.189 728.657 358.726 728.631C302.42 728.598 260.834 709.108 232.726 669.577C219.199 650.552 211.168 629.553 207.383 603.308L206.686 598.478L211.561 600.945C214.243 602.302 220.262 604.754 224.937 606.393ZM284.971 606.46L285.506 611.781L282.471 611.268C280.802 610.985 274.375 610 268.187 609.078C262 608.155 256.937 607.113 256.937 606.76C256.937 605.73 261.117 603.396 265.437 602.013C267.637 601.31 272.812 600.825 276.937 600.936L284.437 601.139L284.971 606.46ZM898.437 605.335C922.098 607.45 934.512 608.03 957.187 608.078C972.999 608.111 985.937 608.375 985.937 608.664C985.937 608.953 987.08 615.703 988.478 623.664C991.646 641.711 995.937 669.834 995.937 672.553V674.593L844.114 674.626C760.611 674.645 692.078 674.447 691.819 674.187C691.413 673.781 692.369 663.894 696.708 623.639L697.516 616.139L698.291 627.564C698.751 634.331 699.681 640.176 700.573 641.902C703.852 648.243 720.606 652.742 740.942 652.742C764.707 652.742 784.184 647.381 786.962 640.073C787.498 638.663 787.937 631.238 787.937 623.574V609.639H807.059C828.024 609.639 841.885 608.063 854.646 604.228C858.931 602.94 863.787 602.059 865.437 602.269C867.087 602.48 881.937 603.86 898.437 605.335ZM1014.92 622.889C1019.58 640.832 1024.15 662.478 1025.11 671.139L1025.44 674.139L1014.69 674.38C1007 674.552 1003.94 674.287 1003.94 673.449C1003.94 670.726 998.584 637.971 995.879 624.139C992.319 605.937 992.309 605.661 995.187 605.559C996.424 605.514 999.462 604.898 1001.94 604.189C1009.99 601.884 1009.14 600.67 1014.92 622.889Z" fill="#0D542B"/>
</svg>
