<svg width="112" height="115" viewBox="0 0 112 115" fill="none" xmlns="http://www.w3.org/2000/svg">
<path d="M11 58.7868C11.825 58.0109 15.3846 55.516 24.8477 50.5535C30.0151 47.8438 34.6173 47.7152 37.104 48.2747C39.1417 48.7331 38.6797 53.8075 38.3246 58.6447C37.8513 65.0901 33.5705 67.146 32.2985 67.5685C31.7876 67.7382 31.662 66.176 31.9406 64.8463C33.2601 58.5503 40.8035 54.1192 45.4628 51.014C51.0181 47.3116 55.5718 47.0578 57.1785 47.5487C63.2821 49.4134 57.6623 62.4172 56.7967 64.3139C56.3709 65.2467 55.592 65.9206 54.9248 65.7988C54.2577 65.677 53.6286 64.6883 53.4038 63.5989C53.179 62.5095 53.3775 61.3493 53.882 60.3108C56.3735 55.1816 64.0716 53.1608 68.2704 51.0964C72.5821 48.9764 77.0994 48.866 78.774 49.7746C84.2141 52.7261 79.8282 63.6344 78.3572 65.1777C77.641 65.9291 76.5575 66.1396 75.9149 65.8229C75.2723 65.5063 74.9939 64.5343 75.3081 63.5728C77.0586 58.2154 84.8761 53.5629 89.7646 50.187C91.8079 48.7759 94.8285 48.6571 97.6145 49.0747C100.356 52.4981 101.07 57.1599 100.899 61.6452C100.727 63.4918 100.385 64.4663 99.0547 67.5954" stroke="#0D542B" stroke-width="3" stroke-linecap="round"/>
<path d="M38.9587 77.6253C38.9758 77.6253 38.9929 77.6253 39.1489 77.6253C39.305 77.6253 39.5995 77.6253 39.6761 77.7001C39.7526 77.7749 39.6022 77.9245 39.3344 78.2519" stroke="#0D542B" stroke-width="3" stroke-linecap="round"/>
<path d="M73.3666 76.5061C73.3666 76.5134 73.3666 76.5206 73.4414 76.6003C73.5162 76.68 73.6658 76.8319 73.4246 76.9383" stroke="#0D542B" stroke-width="3" stroke-linecap="round"/>
<path d="M53.8526 85.9706C53.9072 86.2107 54.5512 87.3649 55.4643 88.3344C56.1802 89.0945 57.8065 89.1055 59.1124 88.8108C59.648 88.6899 59.9287 88.1805 60.1179 87.758C60.2226 87.2657 60.2538 86.5872 60.2702 85.8668C60.2866 85.5549 60.3195 85.3517 60.3534 84.893" stroke="#0D542B" stroke-width="3" stroke-linecap="round"/>
<path d="M50.1498 41.2074C50.1478 39.5503 50.0796 34.3032 49.509 31.9731C49.0589 30.135 45.9983 31.2541 44.3219 30.9226C43.419 30.7441 42.6544 30.2993 42.116 29.4689C40.796 27.4328 40.9506 26.5173 41.1406 25.1032C41.3665 23.4226 43.8435 21.8315 46.1406 21.4639C48.2008 21.1342 49.6455 21.7732 50.1498 22.3783C51.3661 23.8377 51.5052 23.4467 52.6406 25.1032C53.7761 26.7598 54.3141 24.8744 54.6009 24.1389C55.3658 22.1776 57.2698 20.5762 59.1406 20.1032C61.0115 19.6302 62.8363 20.9095 63.6406 21.3804C65.0649 22.2141 65.4241 22.8476 65.6406 25.1032C65.6949 25.6684 65.6747 26.1388 65.691 26.0434C66.0015 24.225 68.0994 22.9606 69.5578 22.3783C70.5105 21.9978 71.6556 21.7245 72.1406 21.6032C74.1406 21.1032 75.6406 21.8974 76.1406 22.3783C78.9741 25.1032 77.1406 27.6032 76.1406 28.6032C75.1875 29.5563 73.6049 30.7442 71.9452 31.2556C70.039 31.8431 68.5816 31.8021 67.6991 32.0159C66.9837 32.4026 66.6278 34.8946 66.6054 38.4973C66.6172 39.8512 66.6759 40.2423 66.7804 41.6267" stroke="#0D542B" stroke-width="3" stroke-linecap="round"/>
</svg>
