<svg width="16" height="15" viewBox="0 0 16 15" fill="none" xmlns="http://www.w3.org/2000/svg">
<path fill-rule="evenodd" clip-rule="evenodd" d="M7.09823 0.0359203C6.75761 0.0842917 6.23495 0.284306 5.92472 0.485027C5.56991 0.714615 5.12489 1.18626 4.88123 1.591C4.74417 1.81862 4.66518 1.916 4.62974 1.90093C4.50055 1.84615 3.97715 1.83294 3.7294 1.87816C2.73792 2.05922 1.94624 2.83824 1.63028 3.9437C1.57339 4.14281 1.54684 4.35502 1.53439 4.71057C1.51229 5.34176 1.57058 5.66404 1.79744 6.16565C1.93905 6.47872 2.02139 6.60044 2.30561 6.91698C2.68114 7.33521 2.9686 7.53774 3.38728 7.67896L3.64105 7.76458L3.65884 8.93497L3.67663 10.1053L3.76063 10.1805C3.86724 10.2758 3.89826 10.2744 4.2592 10.1573C5.26718 9.83039 6.75714 9.62692 8.14581 9.62656C9.33724 9.62625 10.3966 9.7436 11.3791 9.98471C11.8866 10.1092 11.9942 10.1079 12.0579 9.97629C12.0797 9.93134 12.1279 9.41393 12.1651 8.82647C12.2022 8.23901 12.252 7.45217 12.2757 7.0779L12.3189 6.39744L12.6385 6.215C12.8783 6.0781 13.0254 5.95812 13.2276 5.73471C13.5425 5.38667 13.6948 5.11771 13.8463 4.64218C13.9483 4.32195 13.9562 4.25883 13.9578 3.74707C13.9594 3.27634 13.9475 3.15376 13.8763 2.90156C13.503 1.58035 12.4573 0.8381 11.1628 0.975585C10.8061 1.0135 10.5551 1.08385 10.2569 1.22959L10.0718 1.32008L9.82745 1.04622C9.09081 0.220518 8.1779 -0.117453 7.09823 0.0359203ZM8.19544 0.679575C8.33243 0.711272 8.58061 0.81065 8.74695 0.900432C9.01296 1.04401 9.10152 1.12223 9.4822 1.55003C9.72074 1.81807 9.94401 2.03637 9.97963 2.03637C10.0151 2.03637 10.1887 1.9567 10.3652 1.85929C10.7743 1.63359 11.0274 1.56446 11.4446 1.56446C12.0403 1.56446 12.4796 1.75543 12.8593 2.1796C13.2814 2.65097 13.494 3.35188 13.4112 3.99876C13.2997 4.87 12.7671 5.60104 12.1049 5.79169C11.9913 5.82437 11.8766 5.8751 11.8502 5.9044C11.8151 5.94318 11.7712 6.41702 11.6887 7.65124C11.6264 8.58272 11.5663 9.35486 11.5552 9.36709C11.5442 9.37932 11.4161 9.3643 11.2707 9.3337C10.2869 9.12665 9.32885 9.03451 8.15986 9.03451C7.09808 9.03451 6.60603 9.07065 5.70476 9.21478C5.18773 9.29744 4.48375 9.45085 4.25788 9.5301C4.19558 9.55196 4.19256 9.50269 4.19256 8.46632C4.19256 7.80835 4.17836 7.35023 4.15655 7.30521C4.13555 7.26183 4.0651 7.22077 3.98754 7.20669C3.7585 7.16512 3.36558 7.02733 3.18045 6.92362C2.95291 6.7962 2.58386 6.4079 2.4094 6.1124C2.22936 5.80738 2.13301 5.51192 2.09003 5.13321C1.96179 4.00273 2.56617 2.92523 3.52889 2.56803C3.84948 2.44911 4.24383 2.43621 4.62558 2.53216C4.94243 2.6118 5.01245 2.58053 5.13841 2.30332C5.4195 1.68472 5.91625 1.14225 6.44819 0.8731C6.92786 0.630378 7.64109 0.551371 8.19544 0.679575ZM10.1796 5.76255C10.1413 5.80038 10.0242 5.95336 9.9195 6.10245C9.67043 6.4569 9.33764 6.75633 8.98118 6.94671C8.51667 7.19478 8.30336 7.24602 7.73289 7.24661C7.2044 7.24716 7.01995 7.20304 6.55871 6.96578C6.24082 6.8023 6.04207 6.87301 6.03488 7.15219C6.03058 7.31976 6.17717 7.45901 6.52743 7.62017C6.94206 7.81094 7.22102 7.87001 7.7151 7.87162C8.54773 7.87434 9.21499 7.61769 9.85413 7.0488C10.0892 6.83954 10.4774 6.34431 10.5827 6.11928C10.7149 5.83672 10.3929 5.5518 10.1796 5.76255ZM12.7854 10.713C12.2809 10.7734 11.6541 10.9669 11.2732 11.1799C11.1852 11.2292 10.9346 11.4019 10.7164 11.5638C10.4931 11.7294 10.2217 11.8946 10.0957 11.9417C9.79774 12.0529 9.43424 12.0503 7.96417 11.9267C4.11456 11.6031 1.32236 11.3925 1.04205 11.4047C0.762099 11.4168 0.694992 11.4343 0.526124 11.5392C0.162448 11.765 -0.0353121 12.195 0.0052149 12.6719C0.0504742 13.2043 0.326051 13.569 0.789532 13.7099C0.885139 13.739 1.31179 13.7404 2.19499 13.7146C6.62973 13.5849 9.4647 13.5189 9.61869 13.5419C9.90953 13.5851 10.1531 13.7072 10.5916 14.0296C10.8197 14.1973 11.0964 14.3905 11.2064 14.4589C11.8511 14.8599 12.8838 15.0751 13.6874 14.9761C15.1191 14.7995 16.079 13.8826 15.9949 12.7719C15.9235 11.8292 15.1413 11.0488 14.0023 10.784C13.7458 10.7244 13.0362 10.6829 12.7854 10.713ZM13.7485 11.3981C14.5004 11.5453 15.0629 11.9201 15.2918 12.4264C15.4996 12.886 15.4133 13.3125 15.0324 13.7084C14.3353 14.433 12.7558 14.5476 11.5833 13.9587C11.4617 13.8976 11.1829 13.7127 10.9638 13.5478C10.186 12.9622 10.0477 12.9159 9.10276 12.9235C8.39039 12.9293 3.09427 13.0644 1.7525 13.111C0.917376 13.14 0.802875 13.1205 0.653398 12.9242C0.580991 12.829 0.563271 12.7635 0.563271 12.5906C0.563271 12.1646 0.718761 12.0252 1.1937 12.0254C1.45205 12.0255 6.29185 12.3995 8.31592 12.5758C10.0282 12.725 10.2268 12.6877 11.0622 12.0606C11.5163 11.7197 11.8517 11.5633 12.405 11.4344C12.758 11.3521 13.422 11.3342 13.7485 11.3981Z" fill="#0D542B"/>
</svg>
