<svg width="16" height="16" viewBox="0 0 16 16" fill="none" xmlns="http://www.w3.org/2000/svg">
<circle cx="8" cy="8" r="8" fill="white"/>
<path d="M1 8.03868C1.12844 7.91788 1.68264 7.52944 3.15594 6.75685C3.96045 6.33497 4.67695 6.31494 5.06411 6.40205C5.38135 6.47343 5.30943 7.26346 5.25413 8.01655C5.18046 9.02004 4.51398 9.34012 4.31594 9.4059C4.2364 9.43232 4.21684 9.1891 4.26023 8.98207C4.46566 8.00186 5.64008 7.31197 6.36548 6.82854C7.23039 6.25212 7.93934 6.2126 8.18949 6.28902C9.13975 6.57934 8.26482 8.60389 8.13004 8.89919C8.06376 9.04441 7.94248 9.14934 7.83861 9.13037C7.73475 9.11141 7.63681 8.95747 7.60181 8.78786C7.56681 8.61825 7.59771 8.43763 7.67625 8.27595C8.06415 7.47738 9.26268 7.16277 9.91638 6.84136C10.5877 6.51131 11.291 6.49411 11.5517 6.63557C12.3986 7.09508 11.7158 8.79339 11.4868 9.03366C11.3753 9.15065 11.2066 9.18342 11.1065 9.13412C11.0065 9.08482 10.9632 8.9335 11.0121 8.7838C11.2846 7.94972 12.5017 7.22537 13.2628 6.69978C13.5809 6.48009 14.0512 6.46158 14.4849 6.5266C14.9117 7.05959 15.023 7.78538 14.9963 8.4837C14.9696 8.7712 14.9162 8.92292 14.7092 9.41008" stroke="#0D542B" stroke-width="0.5" stroke-linecap="round"/>
<path d="M5.35286 10.9716C5.35552 10.9716 5.35818 10.9716 5.38248 10.9716C5.40677 10.9716 5.45263 10.9716 5.46454 10.9833C5.47646 10.9949 5.45305 11.0182 5.41135 11.0692" stroke="#0D542B" stroke-width="0.5" stroke-linecap="round"/>
<path d="M10.7098 10.7974C10.7098 10.7985 10.7098 10.7997 10.7214 10.8121C10.7331 10.8245 10.7564 10.8481 10.7188 10.8647" stroke="#0D542B" stroke-width="0.5" stroke-linecap="round"/>
<path d="M7.67169 12.2709C7.68019 12.3083 7.78046 12.488 7.92262 12.6389C8.03407 12.7573 8.28727 12.759 8.49059 12.7131C8.57397 12.6943 8.61767 12.615 8.64713 12.5492C8.66342 12.4725 8.66828 12.3669 8.67084 12.2548C8.6734 12.2062 8.67851 12.1746 8.68379 12.1031" stroke="#0D542B" stroke-width="0.5" stroke-linecap="round"/>
<path d="M7.0952 5.30175C7.09489 5.04378 7.08426 4.22686 6.99543 3.86409C6.92535 3.57791 6.44886 3.75214 6.18786 3.70053C6.04728 3.67273 5.92824 3.60349 5.84442 3.47421C5.63892 3.15721 5.66298 3.01467 5.69257 2.79451C5.72773 2.53286 6.11338 2.28515 6.47101 2.22791C6.79176 2.17658 7.01669 2.27606 7.0952 2.37027C7.28456 2.59748 7.30621 2.53661 7.48299 2.79451C7.65977 3.05242 7.74353 2.75888 7.78819 2.64438C7.90728 2.33902 8.2037 2.08971 8.49497 2.01607C8.78624 1.94243 9.07034 2.1416 9.19557 2.21491C9.41731 2.34472 9.47323 2.44334 9.50695 2.79451C9.5154 2.88251 9.51226 2.95574 9.5148 2.94089C9.56314 2.65779 9.88976 2.46094 10.1168 2.37027C10.2651 2.31104 10.4434 2.26848 10.5189 2.2496C10.8303 2.17176 11.0638 2.29541 11.1417 2.37027C11.5828 2.79451 11.2974 3.18374 11.1417 3.33943C10.9933 3.48781 10.7469 3.67275 10.4885 3.75238C10.1917 3.84384 9.96482 3.83746 9.82744 3.87074C9.71605 3.93096 9.66064 4.31893 9.65716 4.87982C9.65899 5.09062 9.66813 5.1515 9.68439 5.36704" stroke="#0D542B" stroke-width="0.5" stroke-linecap="round"/>
</svg>
